<svg version="1.1" id="Layer_1" xmlns="http://www.w3.org/2000/svg" xmlns:xlink="http://www.w3.org/1999/xlink" x="0px" y="0px"
	 width="100%" viewBox="0 0 500 500" enable-background="new 0 0 500 500" xml:space="preserve">
<path fill="#010101" opacity="1.000000" stroke="none" 
	d="
M333.000000,501.000000 
	C222.000031,501.000000 111.500053,501.000000 1.000059,501.000000 
	C1.000040,334.333405 1.000040,167.666794 1.000020,1.000149 
	C167.666565,1.000099 334.333130,1.000099 500.999756,1.000050 
	C500.999847,167.666519 500.999847,334.333038 500.999939,500.999786 
	C445.166656,501.000000 389.333344,501.000000 333.000000,501.000000 
M203.498978,340.944855 
	C203.255920,340.862793 203.010071,340.853271 202.493851,340.028076 
	C202.493851,327.118744 202.493851,314.209412 202.493851,301.062927 
	C197.345184,301.062927 192.615219,301.062927 187.177719,301.062927 
	C187.177719,309.857300 187.177719,318.448944 186.442657,327.087006 
	C186.198151,327.109070 185.953644,327.131104 184.990875,327.015656 
	C181.678391,328.051056 182.990631,329.185394 184.528992,331.071136 
	C185.944489,332.806274 187.215103,335.222900 187.294540,337.385406 
	C187.606323,345.873016 187.221100,354.386688 187.552551,362.872833 
	C187.644287,365.221924 188.740982,368.071289 190.359406,369.735199 
	C202.442184,382.157288 214.767242,394.343842 227.035065,406.585480 
	C227.845047,407.393799 228.808945,408.047882 230.234283,409.207306 
	C230.234283,390.038513 230.234283,371.739380 230.234283,353.422485 
	C238.222183,354.214447 238.222183,354.214447 238.788712,351.173737 
	C237.683121,350.896698 236.555389,350.336029 235.455811,350.386627 
	C230.608124,350.609924 229.825043,347.959503 230.065796,343.822174 
	C230.373306,338.537689 230.140381,333.221771 230.140381,327.763245 
	C224.973541,327.763245 220.215424,327.763245 214.810501,327.763245 
	C214.810501,333.670349 214.810501,339.297852 214.178085,344.677185 
	C210.742126,343.443024 207.306168,342.208832 203.498978,340.944855 
M137.976837,364.233215 
	C139.319458,365.488129 140.662064,366.743042 142.300385,368.595978 
	C144.480072,370.263947 146.659760,371.931915 149.023315,374.207306 
	C151.649689,376.158356 154.276062,378.109406 157.242416,380.648010 
	C161.161118,383.102173 165.079819,385.556335 169.380264,388.559265 
	C171.575836,389.718109 173.771393,390.876953 176.386490,392.580536 
	C181.255569,394.710266 186.124649,396.839996 191.451935,399.531219 
	C197.071625,401.565887 199.598831,400.700409 205.242661,394.264557 
	C202.860382,393.779602 200.941391,393.388977 198.596268,392.456512 
	C193.732635,390.303925 188.869003,388.151367 183.580475,385.479248 
	C181.020279,384.051544 178.460083,382.623810 175.215210,381.032074 
	C171.869781,378.956940 168.524368,376.881775 164.698181,374.323425 
	C161.462158,371.891449 158.226151,369.459473 154.694565,366.476562 
	C153.423889,365.534241 152.153198,364.591949 150.480850,363.074310 
	C148.309708,361.081177 146.138550,359.088043 143.682465,356.568207 
	C142.686234,355.662628 141.690002,354.757050 140.395737,353.195526 
	C136.942581,349.103027 133.489410,345.010498 129.794754,340.285339 
	C128.227631,338.118713 126.660507,335.952118 124.786308,333.193970 
	C123.570412,331.360657 122.354507,329.527344 120.815399,327.089874 
	C119.573608,324.715851 118.331818,322.341797 117.008537,319.273346 
	C116.018188,317.512329 115.027840,315.751312 113.997017,313.254028 
	C112.817581,310.457092 111.638145,307.660126 110.262688,304.172272 
	C109.098183,300.485687 107.869202,296.818024 106.779503,293.109467 
	C98.944031,266.443207 98.181793,239.456573 105.905075,212.856995 
	C122.781929,154.731812 160.904846,118.068031 220.058914,104.545502 
	C256.917236,96.119759 292.010956,102.360817 325.041351,120.720116 
	C341.082550,129.636307 354.617096,141.488464 366.931885,155.767426 
	C368.664490,157.831223 370.397095,159.895035 372.272156,162.618546 
	C374.135284,165.182251 375.998444,167.745956 377.948730,170.944519 
	C378.915466,172.316376 379.882172,173.688232 380.964813,175.764267 
	C382.087128,177.831848 383.209412,179.899414 384.519867,182.621292 
	C386.374756,186.408722 388.229645,190.196167 390.074066,194.710129 
	C391.098297,197.133469 392.122528,199.556793 393.138977,202.709290 
	C393.825348,204.795959 394.511719,206.882645 395.191498,209.717346 
	C395.906891,212.130585 396.622284,214.543823 397.280365,217.680405 
	C397.830933,219.792389 398.381531,221.904388 398.896484,224.872498 
	C399.562469,229.270065 400.228485,233.667633 400.852203,238.937988 
	C400.933594,241.277695 401.014984,243.617401 401.007019,246.890686 
	C401.018280,251.584930 401.029541,256.279175 400.892517,261.787689 
	C400.593140,265.193542 400.293732,268.599426 399.676361,272.725067 
	C399.144562,275.962341 398.612762,279.199646 397.991638,282.980499 
	C405.818542,280.600098 410.106628,276.574738 409.972473,268.074646 
	C410.267761,264.357574 410.563049,260.640533 410.905670,256.039459 
	C410.573700,251.680496 410.241760,247.321533 409.963257,242.074997 
	C409.891815,239.688904 409.820343,237.302795 409.796356,234.110352 
	C409.061096,229.709061 408.325806,225.307770 407.447021,220.095703 
	C406.996399,218.058746 406.545807,216.021774 406.108368,213.233398 
	C405.330963,211.084091 404.553528,208.934784 403.894836,205.973694 
	C403.220367,203.645264 402.545898,201.316818 401.863220,198.270172 
	C400.618011,195.450302 399.372833,192.630447 398.044525,189.087051 
	C396.394348,185.715454 394.744141,182.343842 392.972656,178.284683 
	C391.729065,176.164474 390.485443,174.044281 389.056091,171.242920 
	C387.962463,169.490921 386.868835,167.738922 385.652893,165.336166 
	C383.959229,162.844223 382.265564,160.352264 380.259277,157.221130 
	C378.201263,154.747681 376.143280,152.274246 373.906219,149.155594 
	C371.974579,146.943695 370.103973,144.674850 368.101715,142.528839 
	C351.751434,125.004799 332.622406,111.510933 310.210632,102.832008 
	C264.689270,85.203972 220.120834,87.350128 176.764999,109.820602 
	C144.201477,126.697647 120.283707,152.058426 105.193352,185.467056 
	C92.948074,212.576965 88.101669,241.121689 92.413239,270.610168 
	C94.312180,283.597778 98.805382,296.206055 102.102356,309.708771 
	C103.386337,312.510315 104.670326,315.311829 105.982986,318.803925 
	C106.988976,320.535858 107.994972,322.267792 109.063225,324.703644 
	C110.714401,327.466858 112.365578,330.230103 114.119934,333.684326 
	C115.684624,336.007843 117.249313,338.331329 118.941277,341.285767 
	C120.578178,343.407898 122.215088,345.530029 123.984612,348.276733 
	C127.007034,351.790222 130.029465,355.303680 133.293091,359.457489 
	C134.801682,360.852539 136.310272,362.247620 137.976837,364.233215 
M341.462524,368.351593 
	C342.103149,368.865906 342.756500,369.365265 343.382477,369.896881 
	C348.123688,373.923615 352.179932,374.021606 356.181763,370.197327 
	C360.074402,366.477295 360.169006,361.554321 356.439240,356.796783 
	C352.603333,351.903900 348.201172,350.706207 343.945587,353.397736 
	C339.179016,356.412445 338.033691,360.917358 340.557648,366.273590 
	C340.949677,367.105530 340.876709,368.156555 340.275177,369.109192 
	C338.294586,369.935181 336.313995,370.761169 334.190735,371.646667 
	C333.389587,370.235748 332.615967,368.873291 332.131592,368.020203 
	C333.041565,364.893738 339.045471,365.534546 336.293823,360.134308 
	C332.615295,362.664795 329.403107,364.874481 326.072754,367.165466 
	C330.038330,372.863800 333.772919,378.230225 337.608490,383.741760 
	C338.800507,382.940460 339.820740,382.254639 340.913757,381.519867 
	C339.370239,379.143219 338.050873,377.111664 337.416382,376.134705 
	C338.858337,373.164062 339.875122,371.069336 341.462524,368.351593 
M210.500031,288.006226 
	C225.499420,288.006226 240.498856,287.990631 255.498138,288.031189 
	C256.943420,288.035095 258.857513,287.865356 259.751709,288.668945 
	C263.728394,292.242798 267.412903,296.141724 272.122284,300.840210 
	C252.220108,300.840210 233.818939,300.840210 215.208038,300.840210 
	C215.208038,305.802246 215.208038,310.405701 215.208038,315.192627 
	C245.824142,315.192627 276.365479,315.192627 307.912598,315.192627 
	C293.694305,301.028564 280.178131,287.491455 266.513275,274.106140 
	C265.549713,273.162262 263.490356,273.045746 261.938293,273.038849 
	C245.605743,272.965973 229.272751,272.993774 212.939865,272.993774 
	C209.496719,272.993774 206.053558,272.993774 202.565475,272.993774 
	C202.565475,250.105301 202.565475,227.787994 202.565475,205.515503 
	C202.970703,205.326019 203.271042,205.062775 203.571655,205.062454 
	C232.237289,205.030869 260.902924,205.012924 289.568542,205.035034 
	C290.498993,205.035751 291.712219,205.161057 292.313446,205.733032 
	C296.194366,209.425293 299.941589,213.258072 304.701660,218.012589 
	C273.915314,218.012589 244.682953,218.012589 215.410889,218.012589 
	C215.410889,232.988525 215.410889,247.550140 215.410889,262.182373 
	C220.438141,262.182373 225.164291,262.182373 230.325821,262.182373 
	C230.325821,252.256226 230.325821,242.661835 230.325821,232.763641 
	C267.017303,232.763641 303.268677,232.763641 340.216278,232.763641 
	C339.492523,231.745804 339.213654,231.206802 338.804169,230.799042 
	C325.696014,217.747025 312.622131,204.659607 299.376923,191.747940 
	C298.176758,190.577957 295.863403,190.070053 294.064667,190.064972 
	C259.899231,189.968399 225.733459,189.990189 191.567749,190.006256 
	C190.148895,190.006927 188.730133,190.191010 187.406357,190.283035 
	C187.406357,223.027557 187.406357,255.298965 187.406357,288.006226 
	C194.919281,288.006226 202.209671,288.006226 210.500031,288.006226 
M149.517578,299.821533 
	C142.103577,284.852142 138.356827,269.047699 137.609665,252.323624 
	C134.605927,185.087875 195.282425,125.112877 269.434174,137.372803 
	C334.566040,148.141434 375.833923,211.410858 360.894775,275.848969 
	C350.629883,320.125305 310.990997,355.926422 265.917786,361.229919 
	C256.908752,362.290009 247.757004,362.137207 238.511475,362.550781 
	C238.511475,364.869690 238.511475,367.297058 238.511475,369.698578 
	C295.342987,375.885986 354.003357,339.392273 368.846924,276.859192 
	C383.811035,213.818253 347.038635,150.483063 283.766815,132.439484 
	C221.919708,114.802193 159.284729,147.588760 136.880219,207.022995 
	C116.625687,260.753754 139.991348,320.686218 178.653961,345.854004 
	C179.429291,337.447968 179.442093,337.434296 173.818985,332.173004 
	C164.004211,322.989807 155.889694,312.529022 149.517578,299.821533 
M322.167419,392.885132 
	C324.215576,391.787903 326.421173,390.895874 328.239990,389.499847 
	C329.049866,388.878235 329.080566,387.241486 329.843597,384.906860 
	C326.372009,386.543854 324.590057,387.384125 322.480499,388.378876 
	C319.888641,383.441742 317.381714,378.666351 315.096405,374.313110 
	C308.978027,376.870941 303.368805,379.215912 297.561859,381.643524 
	C300.423798,388.197601 303.028229,394.161896 305.620056,400.097321 
	C317.446655,395.591003 317.446655,395.591003 315.416534,392.307343 
	C313.026367,393.322998 310.650909,394.332397 308.053223,395.436218 
	C307.293976,393.637238 306.747528,392.342499 306.216492,391.084259 
	C311.933838,387.978180 311.933838,387.978180 310.658295,385.204803 
	C308.709442,385.903839 306.753326,386.605469 304.642670,387.362549 
	C304.007721,385.805023 303.530609,384.634735 303.062653,383.486816 
	C306.152527,381.769562 309.021729,380.174927 312.298065,378.354065 
	C313.304260,380.114349 314.453491,382.274170 315.743713,384.346191 
	C317.587189,387.306702 319.533844,390.202942 322.167419,392.885132 
M259.498138,407.023499 
	C259.690613,408.580688 259.883087,410.137878 260.167328,412.437439 
	C266.221741,408.661591 260.173218,403.519073 263.204285,399.149231 
	C264.599945,401.381317 265.567413,403.190308 266.793610,404.802551 
	C267.691650,405.983276 268.929504,406.905579 270.015900,407.943054 
	C270.898773,406.563416 272.098175,405.287445 272.591736,403.780304 
	C273.367798,401.410522 273.668396,398.885071 274.454803,395.031677 
	C275.536774,398.971313 276.218536,401.506836 276.931488,404.033600 
	C277.551971,406.232605 276.940369,409.996246 281.590637,407.568970 
	C279.931396,401.283783 278.293060,395.077728 276.565826,388.534943 
	C274.802399,388.817596 273.276917,389.062134 271.876617,389.286591 
	C271.102478,393.529846 270.412109,397.313965 269.497345,402.328003 
	C267.632263,398.922943 266.169037,396.735718 265.192505,394.349304 
	C263.898041,391.186035 262.157501,389.843262 258.580261,391.859436 
	C258.846710,396.568024 259.117554,401.354187 259.498138,407.023499 
M352.812408,345.533844 
	C352.743164,346.688446 352.146942,348.388000 352.688110,348.911316 
	C356.953156,353.035492 361.435455,356.934937 366.555695,361.537140 
	C369.202942,354.654144 360.749756,354.492706 360.600983,349.698761 
	C363.646271,350.201721 366.625122,350.490112 369.491058,351.221191 
	C372.724640,352.045959 375.664886,352.774231 376.851288,348.468750 
	C372.017883,343.980072 367.300964,339.599609 362.651276,335.281586 
	C358.619812,337.649658 361.125366,339.210815 363.023010,340.894043 
	C364.729034,342.407288 366.374268,343.988983 369.010284,346.434937 
	C362.651764,345.820984 357.995605,345.371399 352.812408,345.533844 
M403.833618,292.448395 
	C404.949585,291.347015 405.991180,290.154114 407.202271,289.169739 
	C408.437500,288.165741 409.839264,287.366638 411.168121,286.477783 
	C410.890808,285.891022 410.613525,285.304260 410.336243,284.717499 
	C404.345520,284.717499 398.351135,284.609161 392.367371,284.813354 
	C391.236847,284.851929 389.594879,285.910095 389.195282,286.902893 
	C388.787598,287.915771 389.175507,289.956879 389.982208,290.634155 
	C394.751953,294.638763 399.744995,298.377380 404.662903,302.205475 
	C405.148743,301.911285 405.634583,301.617065 406.120422,301.322876 
	C405.589783,299.999237 404.982208,298.700134 404.550049,297.345093 
	C404.115448,295.982452 403.855469,294.564056 403.833618,292.448395 
M392.577179,327.234497 
	C393.685486,325.383942 395.057281,323.630890 395.792847,321.642426 
	C396.169983,320.622925 395.410095,319.182800 395.164062,317.932770 
	C394.733582,318.046600 394.303101,318.160431 393.872650,318.274292 
	C392.522980,320.524597 391.173309,322.774902 389.652985,325.309753 
	C388.089905,324.304840 386.795624,323.472809 386.726349,323.428253 
	C385.012726,319.951843 391.073822,317.933044 386.058716,315.033844 
	C384.732483,316.997253 383.553436,318.742828 382.211060,320.730133 
	C380.891449,319.865936 379.733154,319.107361 378.325623,318.185577 
	C379.576233,316.143616 380.785034,314.536285 381.551697,312.740234 
	C381.864044,312.008453 381.216766,310.867035 381.006104,309.912018 
	C380.230438,310.239807 379.111023,310.347565 378.736755,310.932281 
	C376.803070,313.953430 375.060120,317.096649 373.192291,320.297272 
	C378.467926,323.422150 383.410675,326.137970 388.110718,329.223450 
	C390.450073,330.759247 391.309967,329.776306 392.577179,327.234497 
M288.549194,401.357147 
	C290.729919,400.636627 292.910614,399.916077 295.032379,399.214996 
	C296.895905,401.242065 297.990356,405.077606 301.358124,401.166931 
	C297.986023,396.199707 294.720856,391.183014 291.182159,386.367340 
	C290.541809,385.495880 288.713928,384.995667 287.555511,385.163055 
	C286.607452,385.299988 285.132965,386.663483 285.105042,387.522614 
	C284.897308,393.917664 284.992279,400.322540 284.992279,406.730255 
	C288.845337,407.065094 288.289429,404.442169 288.549194,401.357147 
M252.834656,411.407990 
	C258.318359,406.662628 257.598083,403.830902 250.167725,399.874237 
	C248.938095,399.219452 248.185944,397.667969 247.213135,396.530914 
	C248.680222,396.120026 250.127228,395.543915 251.622177,395.362183 
	C252.475906,395.258362 253.407745,395.797150 255.316254,396.328125 
	C254.672836,394.377594 254.640579,392.628662 253.831619,392.123535 
	C250.892502,390.288147 244.623108,392.375305 243.402527,395.501404 
	C241.888062,399.380188 243.709976,401.654205 247.222519,403.401611 
	C249.004395,404.288086 250.286285,406.179626 251.794220,407.616791 
	C249.550369,407.733612 247.307236,407.870514 245.062088,407.950928 
	C244.589691,407.967865 244.109894,407.777313 243.590546,407.673798 
	C242.310806,410.514618 242.882080,412.249084 246.241287,412.215118 
	C248.216980,412.195160 250.190384,411.949280 252.834656,411.407990 
M381.961945,342.677277 
	C384.855499,339.632172 387.290527,336.230621 384.468567,332.110199 
	C381.645813,327.988586 378.153564,330.206543 374.742920,331.735291 
	C373.515656,332.285339 371.844086,331.844269 370.375305,331.855499 
	C370.984772,330.489960 371.461792,329.040344 372.254639,327.791199 
	C372.712433,327.069885 373.679962,326.672089 375.078033,325.642853 
	C373.480774,324.828857 372.345642,323.724792 371.382690,323.858734 
	C368.562439,324.250977 365.875183,330.238220 366.841034,333.415863 
	C367.966522,337.118805 370.980835,337.985626 375.329987,336.361053 
	C377.342560,335.609344 379.670166,335.701141 381.854919,335.410431 
	C380.344482,337.287750 378.831757,339.163208 377.326569,341.044708 
	C377.141693,341.275787 376.997009,341.539001 375.940125,343.146057 
	C378.335663,343.146057 379.847626,343.146057 381.961945,342.677277 
M385.557465,297.098969 
	C384.790894,298.375031 383.810425,299.570648 383.294952,300.941193 
	C381.129822,306.698181 384.385895,311.978455 391.246887,314.040924 
	C396.914368,315.744598 401.810150,313.084320 402.909912,307.314789 
	C403.190765,305.841675 402.052795,304.098083 401.710388,302.957550 
	C399.418182,305.724762 397.777893,309.445099 395.891266,309.574524 
	C393.064636,309.768494 389.156982,308.144165 387.451050,305.943054 
	C386.270416,304.419678 388.025909,300.620789 388.593811,297.058533 
	C388.481506,297.037354 387.271423,296.808960 385.557465,297.098969 
M235.615753,392.101288 
	C235.218872,398.649445 234.821976,405.197601 234.394699,412.247009 
	C236.153564,412.149109 237.481598,412.075165 239.130432,411.983398 
	C239.130432,406.125610 239.096756,400.807495 239.148499,395.490234 
	C239.166855,393.602203 239.494263,391.640503 235.615753,392.101288 
M274.486938,149.732788 
	C271.568817,149.156662 268.667084,148.385666 265.721375,148.138168 
	C264.962616,148.074432 264.065460,149.657379 263.231903,150.483871 
	C267.288879,151.024323 271.345886,151.564774 275.402863,152.105225 
	C275.336700,151.394547 275.270538,150.683868 274.486938,149.732788 
M154.144501,224.750366 
	C155.075867,221.628937 156.007233,218.507507 157.146347,214.689789 
	C155.495300,214.962189 153.781860,214.853302 153.591888,215.339600 
	C152.331863,218.564880 150.840530,221.874176 150.577393,225.246109 
	C150.430283,227.131393 152.582275,228.120605 154.144501,224.750366 
M286.213318,345.472839 
	C283.359497,346.324097 280.410187,346.957123 277.702301,348.141876 
	C276.719696,348.571808 276.313751,350.319824 275.644684,351.466431 
	C279.927155,351.193390 282.872833,350.055603 285.913727,349.302338 
	C288.695862,348.613129 287.879944,347.309570 286.213318,345.472839 
M252.941956,355.045959 
	C255.767685,354.978058 258.615662,355.086060 261.405334,354.733093 
	C262.222290,354.629669 262.873444,353.215942 263.600616,352.402771 
	C260.368561,352.146545 257.129120,351.668030 253.909119,351.775055 
	C252.991043,351.805603 252.129501,353.536530 251.242035,354.487793 
	C251.515045,354.648926 251.788055,354.810089 252.941956,355.045959 
M348.968018,227.937195 
	C349.571411,231.032120 350.083374,234.150101 350.852661,237.203247 
	C351.013184,237.840179 352.071045,238.422180 352.827942,238.642227 
	C353.083496,238.716537 354.128754,237.533585 354.059937,237.027679 
	C353.613495,233.745972 353.033051,230.474319 352.240265,227.262619 
	C352.173004,226.990234 350.232391,227.180283 348.968018,227.937195 
M147.545975,243.784195 
	C147.424713,246.170990 147.303452,248.557800 147.177277,251.041336 
	C151.185318,250.463455 151.185318,250.463455 150.941528,239.271088 
	C146.810699,237.732025 148.075470,241.126846 147.545975,243.784195 
M352.024139,251.289246 
	C350.524811,262.712463 350.524811,262.712463 355.043152,263.512390 
	C355.043152,259.789124 355.145294,256.229614 354.945129,252.687195 
	C354.910797,252.079666 353.587738,251.544968 352.024139,251.289246 
M151.053528,263.656067 
	C150.060043,264.242462 148.160950,264.938538 148.216568,265.397827 
	C148.654633,269.014435 149.466217,272.585785 150.162811,276.171082 
	C150.734711,276.208771 151.306625,276.246460 151.878525,276.284149 
	C152.260666,275.038116 153.051468,273.755066 152.942520,272.553558 
	C152.691696,269.787842 152.003403,267.061829 151.053528,263.656067 
M350.015533,283.501892 
	C350.688141,281.161469 351.360748,278.821014 352.033386,276.480591 
	C351.718933,276.105652 351.404480,275.730743 351.090027,275.355804 
	C350.070374,276.101776 348.516479,276.632690 348.115936,277.627869 
	C345.012695,285.337524 345.090271,286.142883 348.364868,287.762665 
	C348.852570,286.578339 349.334625,285.407684 350.015533,283.501892 
M306.396454,335.098785 
	C303.600861,336.845093 300.805267,338.591400 297.928070,340.388672 
	C298.553223,341.422058 299.045532,342.235901 299.721832,343.353882 
	C303.306030,341.171265 306.673248,339.120789 311.130737,336.406403 
	C309.122040,335.612213 308.074219,335.197937 306.396454,335.098785 
M341.937286,298.805115 
	C336.726593,299.474792 337.256348,305.039581 334.456909,307.784088 
	C334.410187,307.829895 335.799774,309.340759 337.199097,310.949951 
	C339.286041,306.373627 340.942413,302.741547 341.937286,298.805115 
M166.005722,197.588989 
	C167.061203,195.702164 169.847076,193.596863 165.076324,192.281616 
	C163.356216,195.234314 161.553360,198.175598 159.944290,201.219330 
	C159.618286,201.835968 160.024139,202.839508 160.092606,203.664688 
	C161.034317,203.417191 162.346725,203.471100 162.842621,202.861160 
	C163.967743,201.477249 164.690994,199.766617 166.005722,197.588989 
M298.361237,160.775604 
	C297.968018,159.823441 297.839020,158.390045 297.135223,158.003601 
	C294.301605,156.447708 291.290375,155.215363 287.083771,153.284760 
	C287.605499,155.444046 287.548340,157.232208 288.194550,157.539047 
	C291.349060,159.036865 294.691284,160.139252 298.361237,160.775604 
M203.986603,161.529221 
	C202.834381,161.044449 201.340012,159.843369 200.590393,160.201447 
	C197.662552,161.599960 194.970367,163.491837 192.190567,165.200302 
	C192.209412,165.721649 192.228241,166.242996 192.247086,166.764343 
	C193.589920,166.831741 195.176529,167.390808 196.227524,166.869659 
	C198.847580,165.570526 201.223999,163.780075 203.986603,161.529221 
M327.877167,182.850586 
	C327.637482,183.073364 327.159882,183.446671 327.192017,183.497406 
	C329.304321,186.835358 331.437012,190.161514 333.670349,193.418472 
	C333.780365,193.578888 335.169037,193.269699 335.320435,192.909454 
	C335.631958,192.168076 335.894073,190.930954 335.500793,190.446823 
	C333.244415,187.669418 330.790070,185.052856 327.877167,182.850586 
M215.365448,153.567001 
	C214.601578,156.850525 214.675674,157.041702 217.293152,156.386093 
	C220.449707,155.595444 223.543900,154.555786 226.665070,153.623932 
	C226.820618,153.225891 226.976166,152.827866 227.131714,152.429825 
	C226.092087,151.903519 224.948868,150.796570 224.032303,150.960083 
	C221.312546,151.445328 218.682098,152.431107 215.365448,153.567001 
M344.210236,213.370956 
	C345.079010,213.797607 345.947815,214.224258 346.816589,214.650894 
	C347.007965,213.716721 347.595490,212.638565 347.317902,211.874847 
	C346.418274,209.399521 345.378693,206.930939 344.009796,204.694321 
	C343.533752,203.916519 341.940491,203.822495 339.629120,202.955307 
	C340.944000,205.925171 341.531860,207.262970 342.128113,208.597000 
	C342.734283,209.953232 343.348724,211.305786 344.210236,213.370956 
M322.474854,321.954498 
	C320.853607,323.323059 319.232361,324.691620 317.577820,326.088287 
	C320.800690,328.955231 321.788971,328.531891 326.973724,322.074341 
	C327.636139,321.249268 327.307312,319.628357 327.437653,318.376099 
	C326.967957,318.308777 326.498260,318.241455 326.028534,318.174133 
	C325.002472,319.259521 323.976379,320.344910 322.474854,321.954498 
M154.397491,289.335938 
	C155.606094,292.030579 156.637482,294.829285 158.124405,297.360413 
	C158.610519,298.187927 160.281799,298.319183 161.411041,298.768860 
	C160.570786,294.636810 159.252808,291.809570 158.033020,288.940552 
	C156.878250,286.224426 155.560760,286.976746 154.397491,289.335938 
M174.975586,318.844482 
	C173.896530,313.418396 168.956512,308.744324 165.814041,310.500153 
	C167.293793,312.505676 168.599640,314.635712 170.274490,316.419159 
	C171.397430,317.614960 173.043716,318.319214 174.975586,318.844482 
M178.326645,176.772964 
	C176.681259,178.582428 175.035873,180.391891 173.390488,182.201355 
	C174.981995,183.252533 176.396347,183.526688 177.217422,182.952515 
	C178.831253,181.823975 180.309677,180.365616 181.471909,178.772232 
	C182.341690,177.579758 182.628113,175.961807 183.174271,174.533295 
	C181.733780,175.107101 180.293304,175.680923 178.326645,176.772964 
M314.717865,168.861115 
	C313.292938,167.803146 311.868011,166.745178 310.443085,165.687210 
	C309.947815,165.966827 309.452545,166.246460 308.957275,166.526077 
	C309.437866,167.662720 309.609009,169.161423 310.448120,169.878647 
	C317.072174,175.540558 317.111389,175.494690 319.782776,173.155579 
	C318.272308,171.844574 316.802063,170.568436 314.717865,168.861115 
M250.703110,147.917969 
	C246.780685,147.917969 242.858261,147.917969 237.960983,147.917969 
	C238.953445,149.490433 239.630814,151.041245 239.933929,150.971268 
	C243.612579,150.121857 248.053406,152.831467 250.703110,147.917969 
z"/>
<path fill="#FBFBFB" opacity="1.000000" stroke="none" 
	d="
M210.000046,288.006226 
	C202.209671,288.006226 194.919281,288.006226 187.406357,288.006226 
	C187.406357,255.298965 187.406357,223.027557 187.406357,190.283035 
	C188.730133,190.191010 190.148895,190.006927 191.567749,190.006256 
	C225.733459,189.990189 259.899231,189.968399 294.064667,190.064972 
	C295.863403,190.070053 298.176758,190.577957 299.376923,191.747940 
	C312.622131,204.659607 325.696014,217.747025 338.804169,230.799042 
	C339.213654,231.206802 339.492523,231.745804 340.216278,232.763641 
	C303.268677,232.763641 267.017303,232.763641 230.325821,232.763641 
	C230.325821,242.661835 230.325821,252.256226 230.325821,262.182373 
	C225.164291,262.182373 220.438141,262.182373 215.410889,262.182373 
	C215.410889,247.550140 215.410889,232.988525 215.410889,218.012589 
	C244.682953,218.012589 273.915314,218.012589 304.701660,218.012589 
	C299.941589,213.258072 296.194366,209.425293 292.313446,205.733032 
	C291.712219,205.161057 290.498993,205.035751 289.568542,205.035034 
	C260.902924,205.012924 232.237289,205.030869 203.571655,205.062454 
	C203.271042,205.062775 202.970703,205.326019 202.565475,205.515503 
	C202.565475,227.787994 202.565475,250.105301 202.565475,272.993774 
	C206.053558,272.993774 209.496719,272.993774 212.939865,272.993774 
	C229.272751,272.993774 245.605743,272.965973 261.938293,273.038849 
	C263.490356,273.045746 265.549713,273.162262 266.513275,274.106140 
	C280.178131,287.491455 293.694305,301.028564 307.912598,315.192627 
	C276.365479,315.192627 245.824142,315.192627 215.208038,315.192627 
	C215.208038,310.405701 215.208038,305.802246 215.208038,300.840210 
	C233.818939,300.840210 252.220108,300.840210 272.122284,300.840210 
	C267.412903,296.141724 263.728394,292.242798 259.751709,288.668945 
	C258.857513,287.865356 256.943420,288.035095 255.498138,288.031189 
	C240.498856,287.990631 225.499420,288.006226 210.000046,288.006226 
z"/>
<path fill="#F7F7F7" opacity="1.000000" stroke="none" 
	d="
M149.706787,300.143494 
	C155.889694,312.529022 164.004211,322.989807 173.818985,332.173004 
	C179.442093,337.434296 179.429291,337.447968 178.653961,345.854004 
	C139.991348,320.686218 116.625687,260.753754 136.880219,207.022995 
	C159.284729,147.588760 221.919708,114.802193 283.766815,132.439484 
	C347.038635,150.483063 383.811035,213.818253 368.846924,276.859192 
	C354.003357,339.392273 295.342987,375.885986 238.511475,369.698578 
	C238.511475,367.297058 238.511475,364.869690 238.511475,362.550781 
	C247.757004,362.137207 256.908752,362.290009 265.917786,361.229919 
	C310.990997,355.926422 350.629883,320.125305 360.894775,275.848969 
	C375.833923,211.410858 334.566040,148.141434 269.434174,137.372803 
	C195.282425,125.112877 134.605927,185.087875 137.609665,252.323624 
	C138.356827,269.047699 142.103577,284.852142 149.706787,300.143494 
z"/>
<path fill="#F9F9F9" opacity="1.000000" stroke="none" 
	d="
M102.120743,308.986572 
	C98.805382,296.206055 94.312180,283.597778 92.413239,270.610168 
	C88.101669,241.121689 92.948074,212.576965 105.193352,185.467056 
	C120.283707,152.058426 144.201477,126.697647 176.764999,109.820602 
	C220.120834,87.350128 264.689270,85.203972 310.210632,102.832008 
	C332.622406,111.510933 351.751434,125.004799 368.101715,142.528839 
	C370.103973,144.674850 371.974579,146.943695 373.926392,149.831863 
	C371.541260,152.043213 369.135986,153.578308 366.730713,155.113403 
	C354.617096,141.488464 341.082550,129.636307 325.041351,120.720116 
	C292.010956,102.360817 256.917236,96.119759 220.058914,104.545502 
	C160.904846,118.068031 122.781929,154.731812 105.905075,212.856995 
	C98.181793,239.456573 98.944031,266.443207 106.779503,293.109467 
	C107.869202,296.818024 109.098183,300.485687 110.012192,304.641357 
	C107.214706,306.402466 104.667725,307.694519 102.120743,308.986572 
z"/>
<path fill="#FAFAFA" opacity="1.000000" stroke="none" 
	d="
M187.177719,327.040588 
	C187.177719,318.448944 187.177719,309.857300 187.177719,301.062927 
	C192.615219,301.062927 197.345184,301.062927 202.493851,301.062927 
	C202.493851,314.209412 202.493851,327.118744 202.474091,340.705627 
	C202.543839,341.546478 202.633377,341.709808 202.591431,342.200928 
	C202.373260,342.746216 202.286560,342.963684 202.265320,343.633636 
	C202.337204,348.228058 202.233749,352.374512 202.402496,356.509857 
	C202.472961,358.236725 202.593124,360.396149 203.605438,361.570129 
	C206.898468,365.389252 210.613968,368.844086 215.077072,373.360138 
	C215.077072,364.023865 215.077072,356.003937 215.341461,347.796631 
	C215.340744,346.714630 215.075623,345.819977 214.810516,344.925354 
	C214.810501,339.297852 214.810501,333.670349 214.810501,327.763245 
	C220.215424,327.763245 224.973541,327.763245 230.140381,327.763245 
	C230.140381,333.221771 230.373306,338.537689 230.065796,343.822174 
	C229.825043,347.959503 230.608124,350.609924 235.455811,350.386627 
	C236.555389,350.336029 237.683121,350.896698 238.788712,351.173737 
	C238.222183,354.214447 238.222183,354.214447 230.234283,353.422485 
	C230.234283,371.739380 230.234283,390.038513 230.234283,409.207306 
	C228.808945,408.047882 227.845047,407.393799 227.035065,406.585480 
	C214.767242,394.343842 202.442184,382.157288 190.359406,369.735199 
	C188.740982,368.071289 187.644287,365.221924 187.552551,362.872833 
	C187.221100,354.386688 187.606323,345.873016 187.294540,337.385406 
	C187.215103,335.222900 185.944489,332.806274 184.528992,331.071136 
	C182.990631,329.185394 181.678391,328.051056 185.505066,327.397675 
	C186.405411,327.533325 186.791565,327.286957 187.177719,327.040588 
z"/>
<path fill="#ECECEC" opacity="1.000000" stroke="none" 
	d="
M321.801941,393.005859 
	C319.533844,390.202942 317.587189,387.306702 315.743713,384.346191 
	C314.453491,382.274170 313.304260,380.114349 312.298065,378.354065 
	C309.021729,380.174927 306.152527,381.769562 303.062653,383.486816 
	C303.530609,384.634735 304.007721,385.805023 304.642670,387.362549 
	C306.753326,386.605469 308.709442,385.903839 310.658295,385.204803 
	C311.933838,387.978180 311.933838,387.978180 306.216492,391.084259 
	C306.747528,392.342499 307.293976,393.637238 308.053223,395.436218 
	C310.650909,394.332397 313.026367,393.322998 315.416534,392.307343 
	C317.446655,395.591003 317.446655,395.591003 305.620056,400.097321 
	C303.028229,394.161896 300.423798,388.197601 297.561859,381.643524 
	C303.368805,379.215912 308.978027,376.870941 315.096405,374.313110 
	C317.381714,378.666351 319.888641,383.441742 322.480499,388.378876 
	C324.590057,387.384125 326.372009,386.543854 329.843597,384.906860 
	C329.080566,387.241486 329.049866,388.878235 328.239990,389.499847 
	C326.421173,390.895874 324.215576,391.787903 321.801941,393.005859 
z"/>
<path fill="#EFEFEF" opacity="1.000000" stroke="none" 
	d="
M259.443237,406.581940 
	C259.117554,401.354187 258.846710,396.568024 258.580261,391.859436 
	C262.157501,389.843262 263.898041,391.186035 265.192505,394.349304 
	C266.169037,396.735718 267.632263,398.922943 269.497345,402.328003 
	C270.412109,397.313965 271.102478,393.529846 271.876617,389.286591 
	C273.276917,389.062134 274.802399,388.817596 276.565826,388.534943 
	C278.293060,395.077728 279.931396,401.283783 281.590637,407.568970 
	C276.940369,409.996246 277.551971,406.232605 276.931488,404.033600 
	C276.218536,401.506836 275.536774,398.971313 274.454803,395.031677 
	C273.668396,398.885071 273.367798,401.410522 272.591736,403.780304 
	C272.098175,405.287445 270.898773,406.563416 270.015900,407.943054 
	C268.929504,406.905579 267.691650,405.983276 266.793610,404.802551 
	C265.567413,403.190308 264.599945,401.381317 263.204285,399.149231 
	C260.173218,403.519073 266.221741,408.661591 260.167328,412.437439 
	C259.883087,410.137878 259.690613,408.580688 259.443237,406.581940 
z"/>
<path fill="#EFEFEF" opacity="1.000000" stroke="none" 
	d="
M353.075928,345.227844 
	C357.995605,345.371399 362.651764,345.820984 369.010284,346.434937 
	C366.374268,343.988983 364.729034,342.407288 363.023010,340.894043 
	C361.125366,339.210815 358.619812,337.649658 362.651276,335.281586 
	C367.300964,339.599609 372.017883,343.980072 376.851288,348.468750 
	C375.664886,352.774231 372.724640,352.045959 369.491058,351.221191 
	C366.625122,350.490112 363.646271,350.201721 360.600983,349.698761 
	C360.749756,354.492706 369.202942,354.654144 366.555695,361.537140 
	C361.435455,356.934937 356.953156,353.035492 352.688110,348.911316 
	C352.146942,348.388000 352.743164,346.688446 353.075928,345.227844 
M368.974396,346.467773 
	C368.740265,346.387390 368.506165,346.306976 368.272064,346.226562 
	C368.344086,346.448212 368.416107,346.669861 368.974396,346.467773 
z"/>
<path fill="#EFEFEF" opacity="1.000000" stroke="none" 
	d="
M341.018738,369.106293 
	C340.876709,368.156555 340.949677,367.105530 340.557648,366.273590 
	C338.033691,360.917358 339.179016,356.412445 343.945587,353.397736 
	C348.201172,350.706207 352.603333,351.903900 356.439240,356.796783 
	C360.169006,361.554321 360.074402,366.477295 356.181763,370.197327 
	C352.179932,374.021606 348.123688,373.923615 343.382477,369.896881 
	C342.756500,369.365265 342.103149,368.865906 341.203613,368.701172 
	C340.944672,369.050720 341.018738,369.106293 341.018738,369.106293 
M350.709473,369.073883 
	C354.264069,368.560638 356.145172,366.727570 355.060089,363.010254 
	C353.906891,359.059692 349.019409,355.210815 346.424683,356.255829 
	C343.435791,357.459656 341.666992,359.820526 343.750519,362.857147 
	C345.361694,365.205322 347.837311,366.960419 350.709473,369.073883 
z"/>
<path fill="#EFEFEF" opacity="1.000000" stroke="none" 
	d="
M403.676300,292.809265 
	C403.855469,294.564056 404.115448,295.982452 404.550049,297.345093 
	C404.982208,298.700134 405.589783,299.999237 406.120422,301.322876 
	C405.634583,301.617065 405.148743,301.911285 404.662903,302.205475 
	C399.744995,298.377380 394.751953,294.638763 389.982208,290.634155 
	C389.175507,289.956879 388.787598,287.915771 389.195282,286.902893 
	C389.594879,285.910095 391.236847,284.851929 392.367371,284.813354 
	C398.351135,284.609161 404.345520,284.717499 410.336243,284.717499 
	C410.613525,285.304260 410.890808,285.891022 411.168121,286.477783 
	C409.839264,287.366638 408.437500,288.165741 407.202271,289.169739 
	C405.991180,290.154114 404.949585,291.347015 403.676300,292.809265 
z"/>
<path fill="#EFEFEF" opacity="1.000000" stroke="none" 
	d="
M392.372559,327.546875 
	C391.309967,329.776306 390.450073,330.759247 388.110718,329.223450 
	C383.410675,326.137970 378.467926,323.422150 373.192291,320.297272 
	C375.060120,317.096649 376.803070,313.953430 378.736755,310.932281 
	C379.111023,310.347565 380.230438,310.239807 381.006104,309.912018 
	C381.216766,310.867035 381.864044,312.008453 381.551697,312.740234 
	C380.785034,314.536285 379.576233,316.143616 378.325623,318.185577 
	C379.733154,319.107361 380.891449,319.865936 382.211060,320.730133 
	C383.553436,318.742828 384.732483,316.997253 386.058716,315.033844 
	C391.073822,317.933044 385.012726,319.951843 386.726349,323.428253 
	C386.795624,323.472809 388.089905,324.304840 389.652985,325.309753 
	C391.173309,322.774902 392.522980,320.524597 393.872650,318.274292 
	C394.303101,318.160431 394.733582,318.046600 395.164062,317.932770 
	C395.410095,319.182800 396.169983,320.622925 395.792847,321.642426 
	C395.057281,323.630890 393.685486,325.383942 392.372559,327.546875 
z"/>
<path fill="#F1F1F1" opacity="1.000000" stroke="none" 
	d="
M288.389343,401.758850 
	C288.289429,404.442169 288.845337,407.065094 284.992279,406.730255 
	C284.992279,400.322540 284.897308,393.917664 285.105042,387.522614 
	C285.132965,386.663483 286.607452,385.299988 287.555511,385.163055 
	C288.713928,384.995667 290.541809,385.495880 291.182159,386.367340 
	C294.720856,391.183014 297.986023,396.199707 301.358124,401.166931 
	C297.990356,405.077606 296.895905,401.242065 295.032379,399.214996 
	C292.910614,399.916077 290.729919,400.636627 288.389343,401.758850 
M290.374023,391.347626 
	C289.888031,390.794495 289.402039,390.241364 288.404968,389.106567 
	C288.404968,392.457062 288.404968,394.961761 288.404968,397.876526 
	C290.219330,397.253021 291.672455,396.753693 293.403442,396.158844 
	C292.340607,394.417267 291.574280,393.161560 290.374023,391.347626 
z"/>
<path fill="#F1F1F1" opacity="1.000000" stroke="none" 
	d="
M252.499741,411.606506 
	C250.190384,411.949280 248.216980,412.195160 246.241287,412.215118 
	C242.882080,412.249084 242.310806,410.514618 243.590546,407.673798 
	C244.109894,407.777313 244.589691,407.967865 245.062088,407.950928 
	C247.307236,407.870514 249.550369,407.733612 251.794220,407.616760 
	C250.286285,406.179626 249.004395,404.288086 247.222519,403.401611 
	C243.709976,401.654205 241.888062,399.380188 243.402527,395.501404 
	C244.623108,392.375305 250.892502,390.288147 253.831619,392.123535 
	C254.640579,392.628662 254.672836,394.377594 255.316254,396.328125 
	C253.407745,395.797150 252.475906,395.258362 251.622177,395.362183 
	C250.127228,395.543915 248.680222,396.120026 247.213135,396.530914 
	C248.185944,397.667969 248.938095,399.219452 250.167725,399.874237 
	C257.598083,403.830902 258.318359,406.662628 252.499741,411.606506 
z"/>
<path fill="#EFEFEF" opacity="1.000000" stroke="none" 
	d="
M381.660767,342.911682 
	C379.847626,343.146057 378.335663,343.146057 375.940125,343.146057 
	C376.997009,341.539001 377.141693,341.275787 377.326569,341.044708 
	C378.831757,339.163208 380.344482,337.287750 381.854919,335.410461 
	C379.670166,335.701141 377.342560,335.609344 375.329987,336.361053 
	C370.980835,337.985626 367.966522,337.118805 366.841034,333.415863 
	C365.875183,330.238220 368.562439,324.250977 371.382690,323.858734 
	C372.345642,323.724792 373.480774,324.828857 375.078033,325.642853 
	C373.679962,326.672089 372.712433,327.069885 372.254639,327.791199 
	C371.461792,329.040344 370.984772,330.489960 370.375305,331.855530 
	C371.844086,331.844269 373.515656,332.285339 374.742920,331.735291 
	C378.153564,330.206543 381.645813,327.988586 384.468567,332.110199 
	C387.290527,336.230621 384.855499,339.632172 381.660767,342.911682 
z"/>
<path fill="#EFEFEF" opacity="1.000000" stroke="none" 
	d="
M385.809387,296.839783 
	C387.271423,296.808960 388.481506,297.037354 388.593811,297.058533 
	C388.025909,300.620789 386.270416,304.419678 387.451050,305.943054 
	C389.156982,308.144165 393.064636,309.768494 395.891266,309.574524 
	C397.777893,309.445099 399.418182,305.724762 401.710388,302.957550 
	C402.052795,304.098083 403.190765,305.841675 402.909912,307.314789 
	C401.810150,313.084320 396.914368,315.744598 391.246887,314.040924 
	C384.385895,311.978455 381.129822,306.698181 383.294952,300.941193 
	C383.810425,299.570648 384.790894,298.375031 385.809387,296.839783 
z"/>
<path fill="#1D1D1D" opacity="1.000000" stroke="none" 
	d="
M184.005356,385.998810 
	C188.869003,388.151367 193.732635,390.303925 198.501923,392.869812 
	C195.936279,395.178650 193.465012,397.074188 190.993713,398.969727 
	C186.124649,396.839996 181.255569,394.710266 176.491760,392.163086 
	C179.066467,389.830048 181.535919,387.914429 184.005356,385.998810 
z"/>
<path fill="#939393" opacity="1.000000" stroke="none" 
	d="
M130.036240,340.917999 
	C133.489410,345.010498 136.942581,349.103027 140.168289,353.620850 
	C137.644531,355.636475 135.348206,357.226837 133.051895,358.817169 
	C130.029465,355.303680 127.007034,351.790222 124.036087,347.594177 
	C126.070465,344.913757 128.053360,342.915894 130.036240,340.917999 
z"/>
<path fill="#ECECEC" opacity="1.000000" stroke="none" 
	d="
M340.918274,369.012665 
	C339.875122,371.069336 338.858337,373.164062 337.416382,376.134705 
	C338.050873,377.111664 339.370239,379.143219 340.913757,381.519867 
	C339.820740,382.254639 338.800507,382.940460 337.608490,383.741760 
	C333.772919,378.230225 330.038330,372.863800 326.072754,367.165466 
	C329.403107,364.874481 332.615295,362.664795 336.293823,360.134308 
	C339.045471,365.534546 333.041565,364.893738 332.131592,368.020203 
	C332.615967,368.873291 333.389587,370.235748 334.190735,371.646667 
	C336.313995,370.761169 338.294586,369.935181 340.646973,369.107727 
	C341.018738,369.106293 340.944672,369.050720 340.918274,369.012665 
z"/>
<path fill="#5B5B5B" opacity="1.000000" stroke="none" 
	d="
M400.894470,238.065216 
	C400.228485,233.667633 399.562469,229.270065 399.286652,224.404755 
	C402.314728,222.926819 404.952606,221.916641 407.590515,220.906479 
	C408.325806,225.307770 409.061096,229.709061 409.408142,234.533569 
	C406.311401,235.992935 403.602936,237.029068 400.894470,238.065216 
z"/>
<path fill="#2F2F2F" opacity="1.000000" stroke="none" 
	d="
M409.909821,242.962585 
	C410.241760,247.321533 410.573700,251.680496 410.526886,256.510925 
	C407.112335,258.312714 404.076569,259.643066 401.040802,260.973419 
	C401.029541,256.279175 401.018280,251.584930 401.427734,246.442474 
	C404.535614,244.983704 407.222717,243.973145 409.909821,242.962585 
z"/>
<path fill="#AAAAAA" opacity="1.000000" stroke="none" 
	d="
M390.084534,193.983612 
	C388.229645,190.196167 386.374756,186.408722 384.780701,182.284180 
	C387.725677,180.955460 390.409821,179.963852 393.093964,178.972244 
	C394.744141,182.343842 396.394348,185.715454 397.908203,189.765381 
	C395.209442,191.623657 392.646973,192.803635 390.084534,193.983612 
z"/>
<path fill="#444444" opacity="1.000000" stroke="none" 
	d="
M165.178955,374.806610 
	C168.524368,376.881775 171.869781,378.956940 175.537170,381.441528 
	C173.572266,383.904144 171.285385,385.957306 168.998505,388.010498 
	C165.079819,385.556335 161.161118,383.102173 157.428680,380.294373 
	C160.136292,378.229340 162.657623,376.517975 165.178955,374.806610 
z"/>
<path fill="#5B5B5B" opacity="1.000000" stroke="none" 
	d="
M164.938568,374.565002 
	C162.657623,376.517975 160.136292,378.229340 157.258698,380.000580 
	C154.276062,378.109406 151.649689,376.158356 149.057175,373.535919 
	C151.057404,370.918854 153.023773,368.973175 154.990143,367.027496 
	C158.226151,369.459473 161.462158,371.891449 164.938568,374.565002 
z"/>
<path fill="#1D1D1D" opacity="1.000000" stroke="none" 
	d="
M400.966675,261.380554 
	C404.076569,259.643066 407.112335,258.312714 410.503235,256.952911 
	C410.563049,260.640533 410.267761,264.357574 409.592651,268.535950 
	C406.140015,269.999969 403.067169,271.002625 399.994324,272.005280 
	C400.293732,268.599426 400.593140,265.193542 400.966675,261.380554 
z"/>
<path fill="#0B0B0B" opacity="1.000000" stroke="none" 
	d="
M399.835358,272.365173 
	C403.067169,271.002625 406.140015,269.999969 409.588013,268.977417 
	C410.106628,276.574738 405.818542,280.600098 397.991638,282.980499 
	C398.612762,279.199646 399.144562,275.962341 399.835358,272.365173 
z"/>
<path fill="#CACACA" opacity="1.000000" stroke="none" 
	d="
M117.090027,319.967773 
	C118.331818,322.341797 119.573608,324.715851 120.898987,327.749390 
	C118.660629,329.937042 116.338684,331.465179 114.016739,332.993286 
	C112.365578,330.230103 110.714401,327.466858 109.384171,324.317169 
	C112.166763,322.609711 114.628395,321.288727 117.090027,319.967773 
z"/>
<path fill="#D8D8D8" opacity="1.000000" stroke="none" 
	d="
M377.861572,170.309662 
	C375.998444,167.745956 374.135284,165.182251 372.549072,162.244141 
	C375.407928,160.533249 377.989929,159.196793 380.571899,157.860321 
	C382.265564,160.352264 383.959229,162.844223 385.371460,165.708145 
	C382.680511,167.489975 380.271057,168.899826 377.861572,170.309662 
z"/>
<path fill="#E5E5E5" opacity="1.000000" stroke="none" 
	d="
M102.111549,309.347656 
	C104.667725,307.694519 107.214706,306.402466 110.110199,304.986816 
	C111.638145,307.660126 112.817581,310.457092 113.657791,313.661377 
	C110.863815,315.416931 108.409058,316.765137 105.954300,318.113342 
	C104.670326,315.311829 103.386337,312.510315 102.111549,309.347656 
z"/>
<path fill="#F1F1F1" opacity="1.000000" stroke="none" 
	d="
M236.086609,392.073120 
	C239.494263,391.640503 239.166855,393.602203 239.148499,395.490234 
	C239.096756,400.807495 239.130432,406.125610 239.130432,411.983398 
	C237.481598,412.075165 236.153564,412.149109 234.394699,412.247009 
	C234.821976,405.197601 235.218872,398.649445 236.086609,392.073120 
z"/>
<path fill="#ECECEC" opacity="1.000000" stroke="none" 
	d="
M380.415588,157.540726 
	C377.989929,159.196793 375.407928,160.533249 372.477814,161.914276 
	C370.397095,159.895035 368.664490,157.831223 366.831299,155.440414 
	C369.135986,153.578308 371.541260,152.043213 374.015930,150.154465 
	C376.143280,152.274246 378.201263,154.747681 380.415588,157.540726 
z"/>
<path fill="#2F2F2F" opacity="1.000000" stroke="none" 
	d="
M169.189392,388.284851 
	C171.285385,385.957306 173.572266,383.904144 175.879517,381.523529 
	C178.460083,382.623810 181.020279,384.051544 183.792908,385.739014 
	C181.535919,387.914429 179.066467,389.830048 176.281982,391.890717 
	C173.771393,390.876953 171.575836,389.718109 169.189392,388.284851 
z"/>
<path fill="#939393" opacity="1.000000" stroke="none" 
	d="
M390.079285,194.346863 
	C392.646973,192.803635 395.209442,191.623657 397.949768,190.127136 
	C399.372833,192.630447 400.618011,195.450302 401.516754,198.675858 
	C398.495789,200.047745 395.821289,201.013947 393.146790,201.980133 
	C392.122528,199.556793 391.098297,197.133469 390.079285,194.346863 
z"/>
<path fill="#BBBBBB" opacity="1.000000" stroke="none" 
	d="
M393.033325,178.628464 
	C390.409821,179.963852 387.725677,180.955460 384.686646,181.957031 
	C383.209412,179.899414 382.087128,177.831848 381.279846,175.364334 
	C384.143860,173.950958 386.692841,172.937515 389.241852,171.924072 
	C390.485443,174.044281 391.729065,176.164474 393.033325,178.628464 
z"/>
<path fill="#AAAAAA" opacity="1.000000" stroke="none" 
	d="
M129.915497,340.601685 
	C128.053360,342.915894 126.070465,344.913757 123.969788,347.281921 
	C122.215088,345.530029 120.578178,343.407898 119.021324,340.615723 
	C121.098709,337.892273 123.096046,335.838867 125.093384,333.785492 
	C126.660507,335.952118 128.227631,338.118713 129.915497,340.601685 
z"/>
<path fill="#444444" opacity="1.000000" stroke="none" 
	d="
M409.936523,242.518799 
	C407.222717,243.973145 404.535614,244.983704 401.472412,245.975677 
	C401.014984,243.617401 400.933594,241.277695 400.873322,238.501587 
	C403.602936,237.029068 406.311401,235.992935 409.384399,234.936752 
	C409.820343,237.302795 409.891815,239.688904 409.936523,242.518799 
z"/>
<path fill="#747474" opacity="1.000000" stroke="none" 
	d="
M397.337677,216.957062 
	C396.622284,214.543823 395.906891,212.130585 395.585327,209.350281 
	C398.578125,208.250641 401.177124,207.518066 403.776093,206.785477 
	C404.553528,208.934784 405.330963,211.084091 405.736145,213.648621 
	C402.688538,215.028275 400.013123,215.992676 397.337677,216.957062 
z"/>
<path fill="#747474" opacity="1.000000" stroke="none" 
	d="
M143.967407,357.094910 
	C146.138550,359.088043 148.309708,361.081177 150.279831,363.503357 
	C147.387436,365.287567 144.696045,366.642792 142.004669,367.997986 
	C140.662064,366.743042 139.319458,365.488129 138.043762,363.586060 
	C140.062927,360.990875 142.015167,359.042908 143.967407,357.094910 
z"/>
<path fill="#BBBBBB" opacity="1.000000" stroke="none" 
	d="
M124.939842,333.489746 
	C123.096046,335.838867 121.098709,337.892273 118.957687,340.300262 
	C117.249313,338.331329 115.684624,336.007843 114.068336,333.338806 
	C116.338684,331.465179 118.660629,329.937042 121.060593,328.051453 
	C122.354507,329.527344 123.570412,331.360657 124.939842,333.489746 
z"/>
<path fill="#858585" opacity="1.000000" stroke="none" 
	d="
M403.835449,206.379578 
	C401.177124,207.518066 398.578125,208.250641 395.588623,208.976273 
	C394.511719,206.882645 393.825348,204.795959 393.142883,202.344711 
	C395.821289,201.013947 398.495789,200.047745 401.520874,199.034973 
	C402.545898,201.316818 403.220367,203.645264 403.835449,206.379578 
z"/>
<path fill="#D8D8D8" opacity="1.000000" stroke="none" 
	d="
M105.968643,318.458618 
	C108.409058,316.765137 110.863815,315.416931 113.678032,314.029480 
	C115.027840,315.751312 116.018188,317.512329 117.049286,319.620544 
	C114.628395,321.288727 112.166763,322.609711 109.353043,323.965210 
	C107.994972,322.267792 106.988976,320.535858 105.968643,318.458618 
z"/>
<path fill="#686868" opacity="1.000000" stroke="none" 
	d="
M142.152527,368.296997 
	C144.696045,366.642792 147.387436,365.287567 150.480652,363.791016 
	C152.153198,364.591949 153.423889,365.534241 154.842346,366.752014 
	C153.023773,368.973175 151.057404,370.918854 148.965240,373.232239 
	C146.659760,371.931915 144.480072,370.263947 142.152527,368.296997 
z"/>
<path fill="#0B0B0B" opacity="1.000000" stroke="none" 
	d="
M191.222839,399.250488 
	C193.465012,397.074188 195.936279,395.178650 198.714966,393.140717 
	C200.941391,393.388977 202.860382,393.779602 205.242661,394.264557 
	C199.598831,400.700409 197.071625,401.565887 191.222839,399.250488 
z"/>
<path fill="#686868" opacity="1.000000" stroke="none" 
	d="
M397.309021,217.318741 
	C400.013123,215.992676 402.688538,215.028275 405.729553,214.024338 
	C406.545807,216.021774 406.996399,218.058746 407.518768,220.501099 
	C404.952606,221.916641 402.314728,222.926819 399.304443,223.976685 
	C398.381531,221.904388 397.830933,219.792389 397.309021,217.318741 
z"/>
<path fill="#CACACA" opacity="1.000000" stroke="none" 
	d="
M389.148987,171.583496 
	C386.692841,172.937515 384.143860,173.950958 381.221863,175.012238 
	C379.882172,173.688232 378.915466,172.316376 377.905151,170.627106 
	C380.271057,168.899826 382.680511,167.489975 385.432617,166.033524 
	C386.868835,167.738922 387.962463,169.490921 389.148987,171.583496 
z"/>
<path fill="#858585" opacity="1.000000" stroke="none" 
	d="
M143.824936,356.831543 
	C142.015167,359.042908 140.062927,360.990875 137.964783,363.290771 
	C136.310272,362.247620 134.801682,360.852539 133.172485,359.137329 
	C135.348206,357.226837 137.644531,355.636475 140.317291,353.948792 
	C141.690002,354.757050 142.686234,355.662628 143.824936,356.831543 
z"/>
<path fill="#E5E5E5" opacity="1.000000" stroke="none" 
	d="
M274.845673,149.852997 
	C275.270538,150.683868 275.336700,151.394547 275.402863,152.105225 
	C271.345886,151.564774 267.288879,151.024323 263.231903,150.483871 
	C264.065460,149.657379 264.962616,148.074432 265.721375,148.138168 
	C268.667084,148.385666 271.568817,149.156662 274.845673,149.852997 
z"/>
<path fill="#E5E5E5" opacity="1.000000" stroke="none" 
	d="
M154.080048,225.134949 
	C152.582275,228.120605 150.430283,227.131393 150.577393,225.246109 
	C150.840530,221.874176 152.331863,218.564880 153.591888,215.339600 
	C153.781860,214.853302 155.495300,214.962189 157.146347,214.689789 
	C156.007233,218.507507 155.075867,221.628937 154.080048,225.134949 
z"/>
<path fill="#E5E5E5" opacity="1.000000" stroke="none" 
	d="
M286.540588,345.626831 
	C287.879944,347.309570 288.695862,348.613129 285.913727,349.302338 
	C282.872833,350.055603 279.927155,351.193390 275.644684,351.466431 
	C276.313751,350.319824 276.719696,348.571808 277.702301,348.141876 
	C280.410187,346.957123 283.359497,346.324097 286.540588,345.626831 
z"/>
<path fill="#E5E5E5" opacity="1.000000" stroke="none" 
	d="
M252.501511,355.008606 
	C251.788055,354.810089 251.515045,354.648926 251.242035,354.487793 
	C252.129501,353.536530 252.991043,351.805603 253.909119,351.775055 
	C257.129120,351.668030 260.368561,352.146545 263.600616,352.402771 
	C262.873444,353.215942 262.222290,354.629669 261.405334,354.733093 
	C258.615662,355.086060 255.767685,354.978058 252.501511,355.008606 
z"/>
<path fill="#E5E5E5" opacity="1.000000" stroke="none" 
	d="
M349.065063,227.546341 
	C350.232391,227.180283 352.173004,226.990234 352.240265,227.262619 
	C353.033051,230.474319 353.613495,233.745972 354.059937,237.027679 
	C354.128754,237.533585 353.083496,238.716537 352.827942,238.642227 
	C352.071045,238.422180 351.013184,237.840179 350.852661,237.203247 
	C350.083374,234.150101 349.571411,231.032120 349.065063,227.546341 
z"/>
<path fill="#E5E5E5" opacity="1.000000" stroke="none" 
	d="
M147.589691,243.354828 
	C148.075470,241.126846 146.810699,237.732025 150.941528,239.271088 
	C151.185318,250.463455 151.185318,250.463455 147.177277,251.041336 
	C147.303452,248.557800 147.424713,246.170990 147.589691,243.354828 
z"/>
<path fill="#E5E5E5" opacity="1.000000" stroke="none" 
	d="
M352.442078,251.132935 
	C353.587738,251.544968 354.910797,252.079666 354.945129,252.687195 
	C355.145294,256.229614 355.043152,259.789124 355.043152,263.512390 
	C350.524811,262.712463 350.524811,262.712463 352.442078,251.132935 
z"/>
<path fill="#E5E5E5" opacity="1.000000" stroke="none" 
	d="
M151.273071,263.987885 
	C152.003403,267.061829 152.691696,269.787842 152.942520,272.553558 
	C153.051468,273.755066 152.260666,275.038116 151.878525,276.284149 
	C151.306625,276.246460 150.734711,276.208771 150.162811,276.171082 
	C149.466217,272.585785 148.654633,269.014435 148.216568,265.397827 
	C148.160950,264.938538 150.060043,264.242462 151.273071,263.987885 
z"/>
<path fill="#E5E5E5" opacity="1.000000" stroke="none" 
	d="
M349.916107,283.869476 
	C349.334625,285.407684 348.852570,286.578339 348.364868,287.762665 
	C345.090271,286.142883 345.012695,285.337524 348.115936,277.627869 
	C348.516479,276.632690 350.070374,276.101776 351.090027,275.355804 
	C351.404480,275.730743 351.718933,276.105652 352.033386,276.480591 
	C351.360748,278.821014 350.688141,281.161469 349.916107,283.869476 
z"/>
<path fill="#E5E5E5" opacity="1.000000" stroke="none" 
	d="
M306.711426,334.941223 
	C308.074219,335.197937 309.122040,335.612213 311.130737,336.406403 
	C306.673248,339.120789 303.306030,341.171265 299.721832,343.353882 
	C299.045532,342.235901 298.553223,341.422058 297.928070,340.388672 
	C300.805267,338.591400 303.600861,336.845093 306.711426,334.941223 
z"/>
<path fill="#E5E5E5" opacity="1.000000" stroke="none" 
	d="
M342.268005,298.957275 
	C340.942413,302.741547 339.286041,306.373627 337.199097,310.949951 
	C335.799774,309.340759 334.410187,307.829895 334.456909,307.784088 
	C337.256348,305.039581 336.726593,299.474792 342.268005,298.957275 
z"/>
<path fill="#E5E5E5" opacity="1.000000" stroke="none" 
	d="
M165.791687,197.888901 
	C164.690994,199.766617 163.967743,201.477249 162.842621,202.861160 
	C162.346725,203.471100 161.034317,203.417191 160.092606,203.664688 
	C160.024139,202.839508 159.618286,201.835968 159.944290,201.219330 
	C161.553360,198.175598 163.356216,195.234314 165.076324,192.281616 
	C169.847076,193.596863 167.061203,195.702164 165.791687,197.888901 
z"/>
<path fill="#ECECEC" opacity="1.000000" stroke="none" 
	d="
M298.164185,161.078552 
	C294.691284,160.139252 291.349060,159.036865 288.194550,157.539047 
	C287.548340,157.232208 287.605499,155.444046 287.083771,153.284760 
	C291.290375,155.215363 294.301605,156.447708 297.135223,158.003601 
	C297.839020,158.390045 297.968018,159.823441 298.164185,161.078552 
z"/>
<path fill="#ECECEC" opacity="1.000000" stroke="none" 
	d="
M203.842407,161.858032 
	C201.223999,163.780075 198.847580,165.570526 196.227524,166.869659 
	C195.176529,167.390808 193.589920,166.831741 192.247086,166.764343 
	C192.228241,166.242996 192.209412,165.721649 192.190567,165.200302 
	C194.970367,163.491837 197.662552,161.599960 200.590393,160.201447 
	C201.340012,159.843369 202.834381,161.044449 203.842407,161.858032 
z"/>
<path fill="#ECECEC" opacity="1.000000" stroke="none" 
	d="
M328.140015,182.616150 
	C330.790070,185.052856 333.244415,187.669418 335.500793,190.446823 
	C335.894073,190.930954 335.631958,192.168076 335.320435,192.909454 
	C335.169037,193.269699 333.780365,193.578888 333.670349,193.418472 
	C331.437012,190.161514 329.304321,186.835358 327.192017,183.497406 
	C327.159882,183.446671 327.637482,183.073364 328.140015,182.616150 
z"/>
<path fill="#E5E5E5" opacity="1.000000" stroke="none" 
	d="
M215.691086,153.394104 
	C218.682098,152.431107 221.312546,151.445328 224.032303,150.960083 
	C224.948868,150.796570 226.092087,151.903519 227.131714,152.429825 
	C226.976166,152.827866 226.820618,153.225891 226.665070,153.623932 
	C223.543900,154.555786 220.449707,155.595444 217.293152,156.386093 
	C214.675674,157.041702 214.601578,156.850525 215.691086,153.394104 
z"/>
<path fill="#ECECEC" opacity="1.000000" stroke="none" 
	d="
M344.084869,213.015457 
	C343.348724,211.305786 342.734283,209.953232 342.128113,208.597000 
	C341.531860,207.262970 340.944000,205.925171 339.629120,202.955307 
	C341.940491,203.822495 343.533752,203.916519 344.009796,204.694321 
	C345.378693,206.930939 346.418274,209.399521 347.317902,211.874847 
	C347.595490,212.638565 347.007965,213.716721 346.816589,214.650894 
	C345.947815,214.224258 345.079010,213.797607 344.084869,213.015457 
z"/>
<path fill="#E5E5E5" opacity="1.000000" stroke="none" 
	d="
M322.712585,321.692413 
	C323.976379,320.344910 325.002472,319.259521 326.028534,318.174133 
	C326.498260,318.241455 326.967957,318.308777 327.437653,318.376099 
	C327.307312,319.628357 327.636139,321.249268 326.973724,322.074341 
	C321.788971,328.531891 320.800690,328.955231 317.577820,326.088287 
	C319.232361,324.691620 320.853607,323.323059 322.712585,321.692413 
z"/>
<path fill="#ECECEC" opacity="1.000000" stroke="none" 
	d="
M154.263550,288.993683 
	C155.560760,286.976746 156.878250,286.224426 158.033020,288.940552 
	C159.252808,291.809570 160.570786,294.636810 161.411041,298.768860 
	C160.281799,298.319183 158.610519,298.187927 158.124405,297.360413 
	C156.637482,294.829285 155.606094,292.030579 154.263550,288.993683 
z"/>
<path fill="#EFEFEF" opacity="1.000000" stroke="none" 
	d="
M174.715729,319.043945 
	C173.043716,318.319214 171.397430,317.614960 170.274490,316.419159 
	C168.599640,314.635712 167.293793,312.505676 165.814041,310.500153 
	C168.956512,308.744324 173.896530,313.418396 174.715729,319.043945 
z"/>
<path fill="#F1F1F1" opacity="1.000000" stroke="none" 
	d="
M178.589722,176.513855 
	C180.293304,175.680923 181.733780,175.107101 183.174271,174.533295 
	C182.628113,175.961807 182.341690,177.579758 181.471909,178.772232 
	C180.309677,180.365616 178.831253,181.823975 177.217422,182.952515 
	C176.396347,183.526688 174.981995,183.252533 173.390488,182.201355 
	C175.035873,180.391891 176.681259,178.582428 178.589722,176.513855 
z"/>
<path fill="#E5E5E5" opacity="1.000000" stroke="none" 
	d="
M315.024841,169.076721 
	C316.802063,170.568436 318.272308,171.844574 319.782776,173.155579 
	C317.111389,175.494690 317.072174,175.540558 310.448120,169.878647 
	C309.609009,169.161423 309.437866,167.662720 308.957275,166.526077 
	C309.452545,166.246460 309.947815,165.966827 310.443085,165.687210 
	C311.868011,166.745178 313.292938,167.803146 315.024841,169.076721 
z"/>
<path fill="#ECECEC" opacity="1.000000" stroke="none" 
	d="
M250.863556,148.311447 
	C248.053406,152.831467 243.612579,150.121857 239.933929,150.971268 
	C239.630814,151.041245 238.953445,149.490433 237.960983,147.917969 
	C242.858261,147.917969 246.780685,147.917969 250.863556,148.311447 
z"/>
<path fill="#D8D8D8" opacity="1.000000" stroke="none" 
	d="
M214.494293,344.801270 
	C215.075623,345.819977 215.340744,346.714630 214.953629,347.796509 
	C210.224014,346.404602 206.146652,344.825409 202.045227,342.833099 
	C202.215012,342.223755 202.408859,342.027466 202.912933,341.879547 
	C203.438873,341.610138 203.654541,341.292419 203.870209,340.974670 
	C207.306168,342.208832 210.742126,343.443024 214.494293,344.801270 
z"/>
<path fill="#1D1D1D" opacity="1.000000" stroke="none" 
	d="
M203.684601,340.959778 
	C203.654541,341.292419 203.438873,341.610138 202.939606,341.899658 
	C202.656036,341.871429 202.722900,341.873138 202.722900,341.873138 
	C202.633377,341.709808 202.543839,341.546478 202.607849,341.149719 
	C203.010071,340.853271 203.255920,340.862793 203.684601,340.959778 
z"/>
<path fill="#1D1D1D" opacity="1.000000" stroke="none" 
	d="
M186.810181,327.063782 
	C186.791565,327.286957 186.405411,327.533325 185.864197,327.466431 
	C185.953644,327.131104 186.198151,327.109070 186.810181,327.063782 
z"/>
<path fill="#1D1D1D" opacity="1.000000" stroke="none" 
	d="
M202.069275,343.246185 
	C206.146652,344.825409 210.224014,346.404602 214.689240,347.983917 
	C215.077072,356.003937 215.077072,364.023865 215.077072,373.360138 
	C210.613968,368.844086 206.898468,365.389252 203.605438,361.570129 
	C202.593124,360.396149 202.472961,358.236725 202.402496,356.509857 
	C202.233749,352.374512 202.337204,348.228058 202.239227,343.658142 
	C202.147659,343.230194 202.069275,343.246185 202.069275,343.246185 
z"/>
<path fill="#010101" opacity="1.000000" stroke="none" 
	d="
M202.045227,342.833099 
	C202.069275,343.246185 202.147659,343.230194 202.173767,343.205688 
	C202.286560,342.963684 202.373260,342.746216 202.591431,342.200928 
	C202.722900,341.873138 202.656036,341.871429 202.629364,341.851318 
	C202.408859,342.027466 202.215012,342.223755 202.045227,342.833099 
z"/>
<path fill="#010101" opacity="1.000000" stroke="none" 
	d="
M368.731262,346.679657 
	C368.416107,346.669861 368.344086,346.448212 368.272034,346.226562 
	C368.506165,346.306976 368.740265,346.387390 368.731262,346.679657 
z"/>
<path fill="#0B0B0B" opacity="1.000000" stroke="none" 
	d="
M350.319031,369.026520 
	C347.837311,366.960419 345.361694,365.205322 343.750519,362.857147 
	C341.666992,359.820526 343.435791,357.459656 346.424683,356.255829 
	C349.019409,355.210815 353.906891,359.059692 355.060089,363.010254 
	C356.145172,366.727570 354.264069,368.560638 350.319031,369.026520 
z"/>
<path fill="#2F2F2F" opacity="1.000000" stroke="none" 
	d="
M290.591003,391.626709 
	C291.574280,393.161560 292.340607,394.417267 293.403442,396.158844 
	C291.672455,396.753693 290.219330,397.253021 288.404968,397.876526 
	C288.404968,394.961761 288.404968,392.457062 288.404968,389.106567 
	C289.402039,390.241364 289.888031,390.794495 290.591003,391.626709 
z"/>
</svg>