<?xml version="1.0"?>
<svg width="600" height="200" xmlns="http://www.w3.org/2000/svg" xmlns:svg="http://www.w3.org/2000/svg" enable-background="new 0 0 600 200" version="1.1" xml:space="preserve">
 <g class="layer">
  <title>Layer 1</title>
  <path d="m165.23,161.77c3.98,4.01 7.72,7.76 11.17,11.24c18.97,-18.96 37.64,-37.63 55.34,-55.33c-12.63,-13.12 -25.53,-26.51 -38.2,-39.67c-12.79,12.8 -26.02,26.05 -40.36,40.41c7.49,7.22 15.23,14.7 23.49,22.68c7.09,-7.17 13.6,-13.77 20.14,-20.35c4.58,-4.61 9.37,-9.02 13.73,-13.83c2.7,-2.97 4.23,-1.63 6.42,0.47c2.27,2.19 2.58,3.65 0.14,6.06c-13.29,13.09 -26.42,26.35 -39.62,39.57c-9.85,-10.02 -19.61,-19.94 -29.56,-30.06c-1.95,1.75 -3.07,2.67 -4.09,3.68c-18.51,18.49 -37.09,36.92 -55.45,55.56c-3.12,3.17 -4.78,3.01 -7.85,-0.11c-20.12,-20.41 -40.41,-40.66 -60.8,-60.8c-3.23,-3.2 -3.58,-5.53 -0.03,-8.49c2.2,-1.84 4.02,-4.1 6.14,-6.04c2.55,-2.34 4.47,-0.81 6.5,1.07c2.08,1.91 2.23,3.53 -0.01,5.29c-1.31,1.03 -2.63,2.04 -4.25,3.3c19.21,19.12 37.78,37.61 56.16,55.92c33.55,-33.56 67.54,-67.55 103.04,-103.05c-3.44,-2.34 -7.15,-4.85 -9.65,-6.55c-8.48,7.89 -17.73,16.31 -26.76,24.94c-11.72,11.19 -23.38,22.46 -34.87,33.88c-7.4,7.37 -14.45,15.09 -21.69,22.62c-2.6,2.7 -5.15,5.49 -8.08,7.79c-0.65,0.51 -3.22,-0.5 -4.23,-1.5c-19.76,-19.66 -39.42,-39.43 -59.1,-59.16c-6.78,-6.8 -6.8,-6.79 0.14,-13.75c8.99,-9 18.06,-17.93 26.96,-27.02c8.27,-8.44 16.35,-17.06 24.55,-25.57c2.43,-2.52 4.98,-4.93 7.52,-7.35c2.49,-2.37 4.34,-0.28 5.84,1.22c5.4,5.42 10.49,11.14 15.93,16.52c7.1,7.02 14.48,13.77 21.61,20.76c2.94,2.88 -0.2,4.93 -1.85,6.32c-1.08,0.92 -4.34,1.03 -5.23,0.13c-11.31,-11.4 -22.36,-23.04 -32.01,-33.1c-19.36,18.62 -38.49,37.03 -56.85,54.68c13.18,13.24 26.12,26.23 38.9,39.06c12.58,-12.69 25.78,-26 38.94,-39.27c-7.25,-7.25 -15.03,-15.03 -22.92,-22.93c-11.93,12.02 -23.88,24.07 -36.51,36.8c-1.52,-2.56 -2.88,-4.85 -4.25,-7.15c-0.53,0.3 -1.06,0.6 -1.59,0.9c0.99,-1.34 1.83,-2.83 2.99,-4c11.98,-12.06 24.1,-23.98 35.95,-36.17c2.92,-3 4.55,-2.45 7.17,0.24c8.59,8.85 17.42,17.45 26.22,26.22c20.6,-20.69 41.23,-41.42 62.91,-63.21c3.44,3.88 6.34,7.48 9.58,10.75c14.42,14.56 28.94,29.03 43.43,43.53c4.28,4.27 8.5,8.61 12.89,12.76c1.93,1.83 2.45,3.23 0.35,5.32c-3.41,3.39 -6.58,7.01 -9.8,10.47c-2.5,-2.6 -4.42,-4.59 -6.45,-6.69c1.88,-1.58 4.14,-3.48 6.02,-5.06c-19.36,-19.37 -37.92,-37.95 -56.26,-56.32c-33.82,33.81 -67.83,67.8 -102.06,102.01c0.68,0.71 1.54,1.69 2.48,2.58c8.27,7.86 5.2,8.72 14.43,-0.43c7.32,-7.24 14.63,-14.48 21.84,-21.83c11.9,-12.13 23.66,-24.4 35.59,-36.49c3.97,-4.03 8.4,-7.6 12.44,-11.56c4.99,-4.89 9.8,-9.98 15.43,-15.73c3.15,3.44 5.85,6.61 8.78,9.54c18.34,18.42 36.68,36.85 55.18,55.12c3.19,3.15 4.65,4.75 0.3,8.73c-10.25,9.38 -19.71,19.65 -29.47,29.58c-7.67,7.79 -15.29,15.62 -22.94,23.43c-3.11,3.16 -6.04,6.55 -9.49,9.28c-1.13,0.89 -4.39,0.82 -5.4,-0.15c-8.54,-8.18 -16.78,-16.68 -25.13,-25.05c-4,-4.02 -7.86,-8.2 -12.15,-11.89c-3.02,-2.6 -1.69,-4.56 0.14,-6.59c1.76,-1.95 3.65,-2.89 6.07,-0.4c7.19,7.42 14.56,14.66 22.11,22.22z" fill="#FFF9F9" id="svg_2" opacity="1" transform="matrix(1 0 0 1 0 0)"/>
  <path d="m430.56,136.21c3.31,1.94 6.25,3.68 9.19,5.43c0.83,-9.74 7.99,-19.73 15.5,-21.63c14.26,-3.61 21.64,-0.4 31.36,13.64c6.95,-14.36 19.56,-16.68 32.72,-13.48c4.19,1.02 4.83,3.21 2.69,7.42c-1.01,1.98 -2.03,3.95 -3.03,5.92c-4.44,-1.73 -8.87,-3.13 -13.12,0.14c-3.8,2.92 -5.21,6.98 -3.3,11.34c3.49,7.96 10.17,6.82 16.57,4.81c1.72,3.68 3.25,6.99 4.79,10.3c-12.75,8.91 -34.8,3.48 -38.07,-13.67c-0.19,-0.99 -2.24,-2.29 -3.46,-2.32c-8.31,-0.21 -16.62,-0.11 -24.91,-0.11c-0.58,5.73 5.47,10.6 10.16,7.47c6.93,-4.62 12.46,-3.62 18.28,1.55c-5.97,11.29 -16.82,12.11 -27.67,10.73c-7.95,-1.02 -13.74,-6.36 -17.05,-14.89c-0.19,8.5 -4.88,13.85 -12.03,14.74c-8.64,1.09 -18.1,2.37 -25.52,-5.54c2.15,-3.42 4.19,-6.67 6.14,-9.78c5.18,1 8.84,7.46 15.82,1.92c-2.82,-1.62 -5.01,-3.08 -7.38,-4.19c-5.15,-2.4 -10.55,-4.58 -11.21,-11.29c-0.83,-8.33 2.59,-12.54 11.06,-14.81c7.59,-2.03 14.68,-0.79 21.97,2.14c-1.12,2.97 -1.86,5.75 -3.24,8.17c-0.49,0.85 -2.56,1.09 -3.91,1.1c-3.13,0.01 -6.26,-0.38 -9.38,-0.37c-0.61,0 -1.21,1.02 -2.52,2.21c3.6,1.12 6.4,1.99 9.55,3.05m32.21,-7.21c-2.46,1.3 -5.93,1.65 -5.65,5.68c4.75,0 9.24,0 14.16,0c-1.63,-3.76 -3.8,-5.88 -8.51,-5.68z" fill="#FFFEFE" id="svg_3" opacity="1"/>
  <path d="m354.96,145.97c-3.07,8.51 -7.69,15.47 -16.73,17.14c-13.82,2.55 -25.98,1.95 -32.24,-11.83c-5.86,-12.89 -0.54,-26.01 12.53,-30.32c11.59,-3.82 22.61,-3.38 31.18,6.49c2.91,3.35 4.38,7.96 6.81,12.57c0,-6.69 0,-13.15 0,-21.01c6.34,1.09 11.63,2.12 16.96,2.83c1.09,0.15 2.39,-0.76 3.51,-1.35c7.13,-3.74 21.91,-1.23 25.15,8.97c0.29,0.9 0.82,1.8 0.82,2.7c0.06,10.12 0.04,20.25 0.04,30.42c-0.78,0.19 -1.23,0.38 -1.69,0.39c-14.28,0.23 -14.28,0.22 -14.28,-14.22c0,-3.34 -0.1,-6.67 0.02,-10c0.15,-3.9 -1.56,-6.87 -5.22,-7.6c-4.11,-0.82 -7.76,1.28 -8.67,5.38c-1.02,4.58 -0.95,9.41 -1.15,14.14c-0.16,3.96 -0.03,7.92 -0.03,12.1c-5.07,0 -9.8,0 -14.97,0c0,-4.59 0.13,-9.04 -0.07,-13.49c-0.07,-1.67 -0.89,-3.3 -1.36,-4.96c-0.13,0.11 -0.31,0.2 -0.37,0.34c-0.11,0.29 -0.15,0.61 -0.24,1.31m-20.43,3.07c4.19,-4.02 5.14,-9.22 2.33,-12.69c-4.11,-5.05 -8.28,-5.69 -13.54,-2.07c-3.21,2.21 -4.38,8.18 -2.32,11.84c2.53,4.49 7.55,5.83 13.53,2.92z" fill="#FFFEFE" id="svg_4" opacity="1"/>
  <path d="m394.81,82c-1.09,1 -2.11,2.76 -3.28,2.86c-3.95,0.37 -7.95,0.14 -12.53,0.14c0,-7.62 0.04,-15.05 -0.04,-22.49c-0.01,-1.57 -0.27,-3.21 -0.75,-4.71c-1.09,-3.42 -4.07,-5.68 -7.03,-4.49c-2.28,0.92 -4.77,4.38 -4.96,6.88c-0.63,8.08 -0.24,16.24 -0.24,24.43c-0.75,0.17 -1.2,0.36 -1.66,0.36c-14.29,0.2 -14.2,0.2 -14.35,-14.22c-0.05,-4.72 -0.22,-9.56 -1.35,-14.09c-0.4,-1.6 -3.94,-3.52 -5.87,-3.35c-2.52,0.22 -4.96,2.01 -4.83,5.72c0.27,7.15 -0.08,14.33 0.15,21.49c0.11,3.59 -1.24,4.52 -4.66,4.54c-12.41,0.07 -12.41,0.18 -12.41,-12.21c0,-9.16 -0.1,-18.33 0.11,-27.49c0.03,-1.36 1.48,-3.83 2.28,-3.84c4.51,-0.02 9.02,0.54 13.53,0.93c1.21,0.1 2.7,0.86 3.57,0.39c5.47,-2.96 11.09,-2.5 16.6,-0.72c2.33,0.75 4.25,2.8 6.82,4.59c5.47,-6.21 13.19,-7.16 20.89,-5.05c3.18,0.88 5.48,4.91 8.2,8.35c0.01,9.73 -0.08,18.62 0.08,27.52c0.03,1.49 1.13,2.97 1.73,4.46z" fill="#FFFEFE" id="svg_5" opacity="1" transform="matrix(1 0 0 1 0 0)"/>
  <path d="m295.72,121.04c8.29,-1.86 6.21,4.77 7.12,8.24c1.43,5.51 0.14,6.7 -5.64,6.71c-5.16,0.01 -10.32,0 -16.23,0c0,7.61 -0.1,15.19 0.04,22.75c0.08,4.26 -0.99,5.81 -5.7,4.56c-3.38,-0.89 -7.2,-0.17 -11.28,-0.17c0,-6.52 0.01,-12.63 0,-18.74c0,-15.15 0.08,-30.3 -0.08,-45.44c-0.03,-3.53 0.74,-5.1 4.68,-5.01c10.16,0.25 20.33,0.2 30.5,0.03c4.25,-0.07 6.16,1.1 5.97,5.83c-0.43,10.58 1.25,9.08 -9.43,9.19c-4.78,0.05 -9.57,0.01 -14.46,0.01c0,4.16 0,7.9 0,12.04c4.81,0 9.43,0 14.51,0z" fill="#FFFDFD" id="svg_6" opacity="1"/>
  <path d="m394.89,81.54c-0.68,-1.03 -1.78,-2.51 -1.81,-4c-0.16,-8.9 -0.07,-17.79 -0.05,-27.16c0.88,2.02 1.75,4.52 2.61,6.97c1.15,-6.36 4.98,-11.25 10.75,-14.34c5.89,-3.16 12.17,-2.24 18.54,-1.16c4.18,0.71 8.58,0.16 12.88,0.17c2.16,0 4.31,0 7.32,0c0,14.24 0,28.41 0,43.2c-5.51,-1.14 -11,1.68 -16.21,-2.41c-16.65,9.01 -29.74,-0.74 -33.96,-13.31c0,3.86 0,7.72 -0.07,12.04m31.51,-25.62c-0.81,-0.49 -1.57,-1.15 -2.45,-1.45c-4.04,-1.38 -7.33,-0.12 -9.96,3.08c-2.8,3.42 -3.27,7.71 -0.64,10.69c2.16,2.45 6.65,5.03 9.36,4.39c6.65,-1.59 10.72,-9.81 3.69,-16.71z" fill="#FFFDFD" id="svg_7" opacity="1"/>
  <path d="m544.8,119c3.71,0.82 6.97,1.63 10.01,2.39c5.23,-2.83 10.99,-0.63 17.14,-1.6c0,5.74 0,11.16 0,16.58c0,7.83 -0.04,15.66 0.02,23.49c0.02,2.77 -0.55,4.1 -3.88,3.26c-4.16,-1.04 -8.48,-1.51 -12.76,-2c-0.98,-0.11 -2.07,0.72 -3.1,1.13c-12.7,5.11 -26.56,0.11 -29.54,-13.19c-2.94,-13.1 0.68,-25.26 14.32,-29.45c2.3,-0.71 4.89,-0.43 7.79,-0.61m-4.79,28.3c2.76,3.33 6.14,4.57 10.3,3c4.6,-1.73 5.97,-5.07 5.88,-9.9c-0.09,-5.02 -3.36,-7.05 -6.96,-8.14c-3.78,-1.15 -6.92,0.79 -9.37,4.19c-2.6,3.6 -2.92,6.72 0.15,10.85z" fill="#FFFCFC" id="svg_8" opacity="1"/>
  <path d="m455.68,45.76c9.27,-6.76 23.23,-6.89 31.46,0.07c6,5.09 7.37,12.16 6.68,20.09c-9.99,0 -19.75,0 -29.61,0c-0.47,3.81 1.4,5.82 4.33,6.89c5.06,1.84 9.43,0.72 13.04,-4.08c3.9,1.79 7.75,3.56 11.88,5.45c-6.24,10.75 -15.83,12.9 -26.34,11.68c-8.26,-0.97 -14.7,-5.52 -18.1,-13.46c-4.41,-10.33 -1.74,-19.05 6.66,-26.64m9.36,7.73c-1.3,2.6 0.58,3.32 2.4,3.44c3.44,0.23 6.91,0.06 10.41,0.06c-0.98,-6.2 -4.51,-7.28 -12.81,-3.5z" fill="#FFFEFE" id="svg_9" opacity="1"/>
  <path d="m285.03,75.02c1.2,-1.93 2.36,-3.49 3.46,-4.98c4.9,1.05 8.92,6.78 15.59,1.76c-2.69,-1.54 -4.58,-2.97 -6.71,-3.76c-9.82,-3.63 -12.22,-7.14 -11.36,-17.11c0.37,-4.28 4.47,-8.86 10.49,-9.5c5.96,-0.64 12.11,0.13 18.13,0.74c3.13,0.31 4.56,2.16 2.46,5.47c-1.18,1.85 -1.77,4.07 -2.54,5.94c-4.62,-0.62 -9.25,-1.24 -13.88,-1.86c-0.24,0.74 -0.47,1.49 -0.71,2.23c2.07,1.03 4.07,2.29 6.23,3.04c7.39,2.54 14.36,7.09 13.84,14.78c-0.44,6.65 -4.5,11.3 -12.29,13.29c-8.6,2.21 -19.91,0.98 -25.5,-5.4c0.9,-1.4 1.82,-2.84 2.79,-4.64z" fill="#FFFDFD" id="svg_10" opacity="1"/>
  <path d="m276.69,16.05c3.28,-0.31 4.28,0.98 4.27,3.76c-0.04,20.47 -0.03,40.93 0.06,61.4c0.01,2.77 -0.97,3.88 -3.79,3.81c-16.31,-0.4 -12.99,2.52 -13.16,-12.32c-0.21,-18.76 -0.05,-37.52 -0.05,-56.65c4.31,0 8.25,0 12.67,0z" fill="#FFFCFC" id="svg_11" opacity="1"/>
  <path d="m502.96,13.05c8.01,0 8.01,0 8.01,7.48c0,21.28 0,42.57 0,64.16c-4.91,0 -9.64,0 -14.67,0c0,-23.61 0,-47.32 0,-71.64c2,0 4.09,0 6.66,0z" fill="#FFFDFD" id="svg_12" opacity="1"/>
 </g>
</svg>