<svg version="1.1" id="Layer_1" xmlns="http://www.w3.org/2000/svg" xmlns:xlink="http://www.w3.org/1999/xlink" x="0px" y="0px"
	 width="100%" viewBox="0 0 600 200" enable-background="new 0 0 600 200" xml:space="preserve">
<path fill="#010101" opacity="1.000000" stroke="none" 
	d="
M428.000000,201.000000 
	C285.377747,201.000000 143.255508,201.000000 1.066629,201.000000 
	C1.066629,134.398636 1.066629,67.797195 1.066629,1.097874 
	C200.999985,1.097874 400.999969,1.097874 600.972900,1.097874 
	C600.972900,67.744423 600.972900,134.372223 600.972900,201.000000 
	C543.463928,201.000000 485.981964,201.000000 428.000000,201.000000 
M369.550934,74.446564 
	C372.119781,83.694527 377.905548,86.581024 386.776733,83.076538 
	C387.403381,82.828995 388.168243,82.665108 388.813599,82.778030 
	C391.422852,83.234627 394.010437,83.814919 396.746979,84.378586 
	C396.746979,75.888222 396.746979,68.461761 396.746979,61.174583 
	C391.241058,60.740997 385.948853,60.097935 380.644135,59.969162 
	C375.171722,59.836323 371.573669,63.196140 369.229523,69.580742 
	C367.985748,67.007355 367.283539,63.897198 365.380554,61.977173 
	C361.887848,58.453224 356.985535,59.328350 351.545380,63.669334 
	C347.833496,59.864182 343.635864,58.573833 338.634399,61.215027 
	C338.015656,61.541775 337.038879,61.228439 336.233032,61.156025 
	C333.699951,60.928406 331.169250,60.674217 328.535156,60.420444 
	C328.535156,68.697380 328.535156,76.251495 328.535156,83.769104 
	C331.273529,83.769104 333.703430,83.769104 336.482758,83.769104 
	C336.482758,79.389198 336.101685,75.199936 336.662750,71.140900 
	C336.900635,69.420006 339.116028,67.972443 340.432648,66.400642 
	C341.681763,68.044044 343.771973,69.575027 344.009644,71.353600 
	C344.549988,75.396446 344.179993,79.560966 344.179993,83.837952 
	C347.126160,83.837952 349.569214,83.837952 352.417084,83.837952 
	C352.417084,79.907799 352.412384,76.106796 352.418640,72.305817 
	C352.423187,69.536385 352.529602,66.538445 356.208344,66.491508 
	C359.810822,66.445549 360.216949,69.227707 360.167419,72.134827 
	C360.100800,76.043266 360.150909,79.953697 360.150909,83.760452 
	C363.317780,83.760452 365.764923,83.760452 368.011688,83.760452 
	C368.356903,80.215775 368.675629,76.942978 369.550934,74.446564 
M418.960388,110.414635 
	C415.555786,104.588875 411.037598,102.377914 404.981567,103.574196 
	C398.897003,104.776100 395.004639,109.124855 393.478638,116.036530 
	C393.478638,116.036530 392.980621,116.060471 392.553802,115.517220 
	C389.567413,113.885788 386.581055,112.254356 383.594666,110.622925 
	C383.755554,110.139465 383.916412,109.656006 384.077301,109.172546 
	C386.533813,109.397858 388.990356,109.623169 391.642731,109.866447 
	C392.344055,108.377083 393.063904,106.848312 393.788391,105.309700 
	C386.458191,102.245399 379.179169,102.873344 376.988617,107.135963 
	C372.324371,116.212173 382.004333,116.633369 386.022095,120.463326 
	C385.814789,120.973145 385.607483,121.482964 385.400177,121.992790 
	C382.672791,121.458527 379.945374,120.924271 377.672119,120.478973 
	C376.032898,121.755157 374.490295,122.956100 373.130035,123.218307 
	C373.135437,119.896996 373.193756,116.574768 373.135681,113.254562 
	C372.997406,105.345314 366.327942,101.163994 358.974976,104.345909 
	C358.085205,104.730965 357.125092,105.634331 356.353027,105.486336 
	C353.749878,104.987335 351.216858,104.122391 348.361633,103.313744 
	C348.361633,111.975098 348.361633,119.640923 348.361633,127.139923 
	C351.125183,127.139923 353.509674,127.139923 356.071106,127.139923 
	C356.071106,123.124603 356.102844,119.477402 356.061951,115.831024 
	C356.022980,112.356346 357.271820,109.813805 361.103088,109.912483 
	C364.695862,110.005020 365.054321,112.788658 365.040405,115.632095 
	C365.021881,119.418427 365.035828,123.204918 365.035828,128.301468 
	C368.141479,127.335503 370.544617,126.588036 373.496613,125.034996 
	C377.566833,126.043831 381.591125,127.547852 385.719391,127.930519 
	C390.405334,128.364868 393.531647,125.481110 394.955780,120.769165 
	C402.707947,130.253174 412.960358,130.747116 419.143433,122.132462 
	C416.545959,120.502319 414.487427,118.600876 410.898193,120.956116 
	C407.515411,123.175865 404.563721,121.405182 403.203003,117.150162 
	C408.696686,117.150162 414.131897,117.150162 419.514496,117.150162 
	C422.752625,127.373886 431.176361,130.953033 440.281525,125.823006 
	C439.563507,124.251419 438.832733,122.651894 438.101959,121.052361 
	C437.845551,121.426750 437.589172,121.801140 437.332764,122.175529 
	C434.560638,120.960602 431.417969,120.187004 429.193573,118.319611 
	C428.267395,117.542061 428.522736,113.434700 429.603119,112.595787 
	C431.750854,110.928009 434.842712,110.476028 437.544464,109.521690 
	C437.723907,109.862167 437.903351,110.202644 438.082764,110.543129 
	C438.833649,108.908554 439.584503,107.273979 440.327301,105.656982 
	C432.323303,101.132500 424.950256,103.247940 420.327332,111.421989 
	C419.870697,111.326447 419.414032,111.230904 418.960388,110.414635 
M196.943787,109.560486 
	C199.455612,112.369514 201.967422,115.178535 205.043396,118.618469 
	C220.295441,103.286438 234.679626,88.826820 249.220261,74.209923 
	C250.646332,75.710388 252.082077,77.221039 253.410812,78.619095 
	C236.919983,94.872650 220.709732,110.849648 204.748886,126.580841 
	C196.526535,118.354614 187.733047,109.556976 179.324768,101.144730 
	C179.494888,99.328255 179.664780,97.514236 179.834671,95.700218 
	C179.368332,95.648315 178.901993,95.596413 178.435654,95.544510 
	C176.667145,97.229065 174.898636,98.913620 173.363785,100.375626 
	C184.380264,111.135803 195.157547,121.662331 206.148026,132.397110 
	C215.302155,123.244850 224.949066,113.599922 234.897217,103.653786 
	C239.350891,108.310638 243.810257,112.973465 248.781067,118.171059 
	C255.106354,111.665054 261.064606,105.646904 266.834961,99.453690 
	C267.513458,98.725464 267.158813,97.034683 267.283081,95.790108 
	C266.663086,95.590057 266.043060,95.390007 265.423065,95.189957 
	C259.895996,100.900871 254.368912,106.611786 249.733109,111.401794 
	C245.513702,107.669083 241.573868,104.183701 237.866989,100.904388 
	C244.255295,94.523018 250.468872,88.316193 256.437927,82.353615 
	C262.597870,88.455063 268.847900,94.645706 274.883392,100.623871 
	C266.092896,109.472755 257.216553,118.408089 247.752228,127.935295 
	C242.471924,122.390129 236.990921,116.634216 231.509918,110.878304 
	C231.019852,110.999435 230.529770,111.120567 230.039703,111.241692 
	C230.250641,112.506157 230.011246,114.201881 230.743790,114.966827 
	C236.585419,121.066841 242.611252,126.990448 248.133469,132.520355 
	C259.007263,121.727798 269.617371,111.196976 279.691559,101.198067 
	C269.257690,90.766464 258.632996,80.144066 247.234161,68.747711 
	C233.234375,82.831886 218.849319,97.303650 204.399918,111.840149 
	C203.060425,110.521248 201.542084,109.026268 200.424255,107.925629 
	C216.796143,91.632576 233.039352,75.467583 249.004562,59.579258 
	C257.490204,68.049744 266.308289,76.852066 274.408478,84.937790 
	C274.291565,87.139839 274.198730,88.888222 274.098877,90.768898 
	C276.866150,88.594513 278.792084,87.081245 280.759277,85.535522 
	C269.814148,74.820213 259.125671,64.356148 247.937256,53.402630 
	C238.539291,62.927521 228.899963,72.697037 218.844193,82.888634 
	C214.125778,78.037300 209.645569,73.430870 205.310425,68.973602 
	C198.545563,75.660942 192.046967,82.085052 185.434555,88.621681 
	C186.040115,89.309044 186.748306,90.112907 187.914337,91.436440 
	C193.706390,85.418465 199.216339,79.693604 204.486923,74.217445 
	C208.655777,78.148415 212.478287,81.752808 216.321274,85.376503 
	C209.842072,91.723915 203.544647,97.893234 197.483795,103.830795 
	C191.415741,97.791496 185.064178,91.470047 179.000626,85.435234 
	C187.517792,76.874710 196.397491,67.949799 205.464920,58.836197 
	C210.312653,63.690224 215.172348,68.701431 220.241119,73.491379 
	C221.105576,74.308281 222.865051,74.178047 224.687256,74.594086 
	C217.355835,67.201736 210.855927,60.647820 204.860306,54.602360 
	C194.553406,64.724373 183.900909,75.185791 173.244156,85.651390 
	C173.428116,85.894485 173.600815,86.187553 173.833511,86.420753 
	C181.367691,93.970985 188.907623,101.515450 196.943787,109.560486 
M297.091492,127.294113 
	C299.670929,127.294113 302.250336,127.294113 305.169861,127.294113 
	C305.169861,122.074234 305.169861,117.308357 305.169861,112.199097 
	C309.293610,112.199097 313.066467,112.199097 316.871460,112.199097 
	C316.871460,109.601494 316.871460,107.361397 316.871460,104.741302 
	C312.855530,104.741302 309.099701,104.741302 305.207031,104.741302 
	C305.207031,102.081322 305.207031,99.814919 305.207031,97.249977 
	C309.526245,97.249977 313.644928,97.249977 317.938263,97.249977 
	C317.938263,94.701042 317.938263,92.452866 317.938263,90.122147 
	C310.680481,90.122147 303.639282,90.122147 296.415466,90.122147 
	C296.415466,102.531670 296.415466,114.632133 297.091492,127.294113 
M446.761505,127.159477 
	C450.116089,127.058304 453.471283,126.972145 456.824890,126.845177 
	C457.639465,126.814331 458.469513,126.480659 459.256989,126.576721 
	C461.842529,126.892097 464.411774,127.341049 466.982056,127.737869 
	C466.982056,119.231018 466.982056,111.707260 466.982056,104.616493 
	C461.758789,104.146019 456.922333,103.689209 452.080780,103.295052 
	C451.270416,103.229080 450.426941,103.375267 449.617462,103.524651 
	C444.456238,104.477112 441.295868,107.769135 440.266052,112.677414 
	C439.042999,118.506645 440.684113,123.531868 446.761505,127.159477 
M321.038116,123.372749 
	C322.184692,124.320770 323.229523,125.440964 324.494415,126.188812 
	C332.621704,130.993790 343.870605,127.310234 346.060760,119.190758 
	C347.569000,113.599533 345.530884,108.508621 340.562744,105.457390 
	C334.900970,101.980164 326.736420,102.790077 322.019684,107.296860 
	C317.787659,111.340523 317.301697,116.547417 321.038116,123.372749 
M403.871552,62.120819 
	C399.294159,65.577911 397.341644,70.088356 398.961365,75.683044 
	C400.509186,81.029358 404.465088,84.042900 409.829315,84.606842 
	C415.152069,85.166405 420.032898,83.893600 423.305359,78.629059 
	C420.483398,77.058983 418.477386,75.028931 414.850220,77.524658 
	C411.562561,79.786758 408.380219,77.772781 407.285095,73.390976 
	C412.796906,73.390976 418.213654,73.390976 423.592529,73.390976 
	C424.236755,62.172581 415.137939,56.826767 403.871552,62.120819 
M323.847046,66.470322 
	C324.646698,64.896881 325.446320,63.323437 326.743073,60.771778 
	C322.234924,60.509792 318.614746,59.879471 315.085846,60.213470 
	C311.617065,60.541779 308.795807,62.546989 308.193787,66.396729 
	C307.605286,70.160179 309.995819,72.231499 312.912048,73.829514 
	C314.667816,74.791634 316.504944,75.605324 318.305542,76.485718 
	C318.112274,77.144302 317.919037,77.802887 317.725769,78.461464 
	C315.003967,77.921257 312.282166,77.381050 309.303894,76.789940 
	C308.498291,78.253685 307.584351,79.914299 305.793884,83.167542 
	C311.203583,83.608154 315.485199,84.305389 319.747284,84.201515 
	C323.650299,84.106384 326.266205,81.661339 326.728119,77.649612 
	C327.200104,73.550476 324.821228,71.190994 321.232452,69.751617 
	C319.398682,69.016136 317.620819,68.141304 315.817657,67.329453 
	C315.967224,66.769348 316.116791,66.209244 316.266357,65.649147 
	C318.548920,66.007271 320.831451,66.365395 323.847046,66.470322 
M426.958618,44.719841 
	C426.380859,45.681923 425.351898,46.622330 425.304474,47.609882 
	C425.113159,51.592335 425.224670,55.589336 425.224609,59.580967 
	C425.224518,67.663300 425.224579,75.745636 425.224579,83.756454 
	C428.305389,83.756454 430.729553,83.756454 433.120728,83.756454 
	C433.120728,70.624176 433.120728,57.758232 433.120728,44.702332 
	C431.109161,44.702332 429.453217,44.702332 426.958618,44.719841 
M305.008972,56.530380 
	C305.008972,53.107365 305.008972,49.684349 305.008972,46.477112 
	C301.704895,46.477112 299.124725,46.477112 296.444519,46.477112 
	C296.444519,59.072891 296.444519,71.322395 296.444519,83.725174 
	C299.377350,83.725174 302.082306,83.725174 305.008972,83.725174 
	C305.008972,74.794632 305.008972,66.158882 305.008972,56.530380 
z"/>
<path fill="#ECECEC" opacity="1.000000" stroke="none" 
	d="
M196.695251,109.310631 
	C188.907623,101.515450 181.367691,93.970985 173.833511,86.420753 
	C173.600815,86.187553 173.428116,85.894485 173.244156,85.651390 
	C183.900909,75.185791 194.553406,64.724373 204.860306,54.602360 
	C210.855927,60.647820 217.355835,67.201736 224.687256,74.594086 
	C222.865051,74.178047 221.105576,74.308281 220.241119,73.491379 
	C215.172348,68.701431 210.312653,63.690224 205.464920,58.836197 
	C196.397491,67.949799 187.517792,76.874710 179.000626,85.435234 
	C185.064178,91.470047 191.415741,97.791496 197.483795,103.830795 
	C203.544647,97.893234 209.842072,91.723915 216.321274,85.376503 
	C212.478287,81.752808 208.655777,78.148415 204.486923,74.217445 
	C199.216339,79.693604 193.706390,85.418465 187.914337,91.436440 
	C186.748306,90.112907 186.040115,89.309044 185.434555,88.621681 
	C192.046967,82.085052 198.545563,75.660942 205.310425,68.973602 
	C209.645569,73.430870 214.125778,78.037300 218.844193,82.888634 
	C228.899963,72.697037 238.539291,62.927521 247.937256,53.402630 
	C259.125671,64.356148 269.814148,74.820213 280.759277,85.535522 
	C278.792084,87.081245 276.866150,88.594513 274.098877,90.768898 
	C274.198730,88.888222 274.291565,87.139839 274.408478,84.937790 
	C266.308289,76.852066 257.490204,68.049744 249.004562,59.579258 
	C233.039352,75.467583 216.796143,91.632576 200.424255,107.925629 
	C201.542084,109.026268 203.060425,110.521248 204.399918,111.840149 
	C218.849319,97.303650 233.234375,82.831886 247.234161,68.747711 
	C258.632996,80.144066 269.257690,90.766464 279.691559,101.198067 
	C269.617371,111.196976 259.007263,121.727798 248.133469,132.520355 
	C242.611252,126.990448 236.585419,121.066841 230.743790,114.966827 
	C230.011246,114.201881 230.250641,112.506157 230.039703,111.241692 
	C230.529770,111.120567 231.019852,110.999435 231.509918,110.878304 
	C236.990921,116.634216 242.471924,122.390129 247.752228,127.935295 
	C257.216553,118.408089 266.092896,109.472755 274.883392,100.623871 
	C268.847900,94.645706 262.597870,88.455063 256.437927,82.353615 
	C250.468872,88.316193 244.255295,94.523018 237.866989,100.904388 
	C241.573868,104.183701 245.513702,107.669083 249.733109,111.401794 
	C254.368912,106.611786 259.895996,100.900871 265.423065,95.189957 
	C266.043060,95.390007 266.663086,95.590057 267.283081,95.790108 
	C267.158813,97.034683 267.513458,98.725464 266.834961,99.453690 
	C261.064606,105.646904 255.106354,111.665054 248.781067,118.171059 
	C243.810257,112.973465 239.350891,108.310638 234.897217,103.653786 
	C224.949066,113.599922 215.302155,123.244850 206.148026,132.397110 
	C195.157547,121.662331 184.380264,111.135803 173.363785,100.375626 
	C174.898636,98.913620 176.667145,97.229065 178.435654,95.544510 
	C178.901993,95.596413 179.368332,95.648315 179.834671,95.700218 
	C179.664780,97.514236 179.494888,99.328255 179.324768,101.144730 
	C187.733047,109.556976 196.526535,118.354614 204.748886,126.580841 
	C220.709732,110.849648 236.919983,94.872650 253.410812,78.619095 
	C252.082077,77.221039 250.646332,75.710388 249.220261,74.209923 
	C234.679626,88.826820 220.295441,103.286438 205.043396,118.618469 
	C201.967422,115.178535 199.455612,112.369514 196.695251,109.310631 
z"/>
<path fill="#F6F6F6" opacity="1.000000" stroke="none" 
	d="
M393.955994,115.892616 
	C395.004639,109.124855 398.897003,104.776100 404.981567,103.574196 
	C411.037598,102.377914 415.555786,104.588875 419.006287,111.065933 
	C419.704926,111.488365 420.357666,111.259499 421.010376,111.030632 
	C424.950256,103.247940 432.323303,101.132500 440.327301,105.656982 
	C439.584503,107.273979 438.833649,108.908554 438.082764,110.543129 
	C437.903351,110.202644 437.723907,109.862167 437.544464,109.521690 
	C434.842712,110.476028 431.750854,110.928009 429.603119,112.595787 
	C428.522736,113.434700 428.267395,117.542061 429.193573,118.319611 
	C431.417969,120.187004 434.560638,120.960602 437.332764,122.175529 
	C437.589172,121.801140 437.845551,121.426750 438.101959,121.052361 
	C438.832733,122.651894 439.563507,124.251419 440.281525,125.823006 
	C431.176361,130.953033 422.752625,127.373886 419.514496,117.150162 
	C414.131897,117.150162 408.696686,117.150162 403.203003,117.150162 
	C404.563721,121.405182 407.515411,123.175865 410.898193,120.956116 
	C414.487427,118.600876 416.545959,120.502319 419.143433,122.132462 
	C412.960358,130.747116 402.707947,130.253174 394.955780,120.769165 
	C393.531647,125.481110 390.405334,128.364868 385.719391,127.930519 
	C381.591125,127.547852 377.566833,126.043831 373.208435,125.157333 
	C372.929413,124.905457 372.938568,124.531258 372.947723,124.157043 
	C374.490295,122.956100 376.032898,121.755157 377.672119,120.478973 
	C379.945374,120.924271 382.672791,121.458527 385.400177,121.992790 
	C385.607483,121.482964 385.814789,120.973145 386.022095,120.463326 
	C382.004333,116.633369 372.324371,116.212173 376.988617,107.135963 
	C379.179169,102.873344 386.458191,102.245399 393.788391,105.309700 
	C393.063904,106.848312 392.344055,108.377083 391.642731,109.866447 
	C388.990356,109.623169 386.533813,109.397858 384.077301,109.172546 
	C383.916412,109.656006 383.755554,110.139465 383.594666,110.622925 
	C386.581055,112.254356 389.567413,113.885788 392.800232,116.057312 
	C393.425751,116.908356 393.804840,117.219299 394.183929,117.530251 
	C394.107941,116.984375 394.031982,116.438499 393.955994,115.892616 
M405.845215,113.015663 
	C407.834106,112.860535 409.823029,112.705406 412.391693,112.505058 
	C410.956543,108.526558 408.755676,107.115631 405.721466,108.420418 
	C404.047546,109.140244 400.735901,110.800240 405.845215,113.015663 
z"/>
<path fill="#F6F6F6" opacity="1.000000" stroke="none" 
	d="
M368.994354,73.670189 
	C368.675629,76.942978 368.356903,80.215775 368.011688,83.760452 
	C365.764923,83.760452 363.317780,83.760452 360.150909,83.760452 
	C360.150909,79.953697 360.100800,76.043266 360.167419,72.134827 
	C360.216949,69.227707 359.810822,66.445549 356.208344,66.491508 
	C352.529602,66.538445 352.423187,69.536385 352.418640,72.305817 
	C352.412384,76.106796 352.417084,79.907799 352.417084,83.837952 
	C349.569214,83.837952 347.126160,83.837952 344.179993,83.837952 
	C344.179993,79.560966 344.549988,75.396446 344.009644,71.353600 
	C343.771973,69.575027 341.681763,68.044044 340.432678,66.400650 
	C339.116028,67.972443 336.900635,69.420006 336.662750,71.140900 
	C336.101685,75.199936 336.482758,79.389198 336.482758,83.769104 
	C333.703430,83.769104 331.273529,83.769104 328.535156,83.769104 
	C328.535156,76.251495 328.535156,68.697380 328.535156,60.420444 
	C331.169250,60.674217 333.699951,60.928406 336.233032,61.156025 
	C337.038879,61.228439 338.015656,61.541775 338.634399,61.215027 
	C343.635864,58.573833 347.833496,59.864182 351.545380,63.669334 
	C356.985535,59.328350 361.887848,58.453224 365.380554,61.977173 
	C367.283539,63.897198 367.985748,67.007355 369.608215,69.656189 
	C369.656036,71.044495 369.325195,72.357338 368.994354,73.670189 
z"/>
<path fill="#F8F8F8" opacity="1.000000" stroke="none" 
	d="
M296.753479,127.013351 
	C296.415466,114.632133 296.415466,102.531670 296.415466,90.122147 
	C303.639282,90.122147 310.680481,90.122147 317.938263,90.122147 
	C317.938263,92.452866 317.938263,94.701042 317.938263,97.249977 
	C313.644928,97.249977 309.526245,97.249977 305.207031,97.249977 
	C305.207031,99.814919 305.207031,102.081322 305.207031,104.741302 
	C309.099701,104.741302 312.855530,104.741302 316.871460,104.741302 
	C316.871460,107.361397 316.871460,109.601494 316.871460,112.199097 
	C313.066467,112.199097 309.293610,112.199097 305.169861,112.199097 
	C305.169861,117.308357 305.169861,122.074234 305.169861,127.294113 
	C302.250336,127.294113 299.670929,127.294113 296.753479,127.013351 
z"/>
<path fill="#F8F8F8" opacity="1.000000" stroke="none" 
	d="
M446.393066,127.017921 
	C440.684113,123.531868 439.042999,118.506645 440.266052,112.677414 
	C441.295868,107.769135 444.456238,104.477112 449.617462,103.524651 
	C450.426941,103.375267 451.270416,103.229080 452.080780,103.295052 
	C456.922333,103.689209 461.758789,104.146019 466.982056,104.616493 
	C466.982056,111.707260 466.982056,119.231018 466.982056,127.737869 
	C464.411774,127.341049 461.842529,126.892097 459.256989,126.576721 
	C458.469513,126.480659 457.639465,126.814331 456.824890,126.845177 
	C453.471283,126.972145 450.116089,127.058304 446.393066,127.017921 
M459.217590,114.793694 
	C458.398926,111.227669 455.867157,109.319633 452.701385,110.718033 
	C450.864075,111.529617 449.007172,114.588715 449.042786,116.603142 
	C449.069916,118.138229 451.872467,120.541382 453.772552,120.928902 
	C457.358734,121.660294 459.194183,119.207291 459.217590,114.793694 
z"/>
<path fill="#F9F9F9" opacity="1.000000" stroke="none" 
	d="
M369.272644,74.058380 
	C369.325195,72.357338 369.656036,71.044495 370.018127,69.450905 
	C371.573669,63.196140 375.171722,59.836323 380.644135,59.969162 
	C385.948853,60.097935 391.241058,60.740997 396.746979,61.174583 
	C396.746979,68.461761 396.746979,75.888222 396.746979,84.378586 
	C394.010437,83.814919 391.422852,83.234627 388.813599,82.778030 
	C388.168243,82.665108 387.403381,82.828995 386.776733,83.076538 
	C377.905548,86.581024 372.119781,83.694527 369.272644,74.058380 
M388.920654,71.643883 
	C388.236481,68.467316 386.289520,66.280899 383.062286,67.071518 
	C381.203705,67.526840 378.958984,69.405045 378.318573,71.163689 
	C377.230011,74.152985 378.840820,76.829216 382.094330,77.539497 
	C386.063843,78.406090 388.386078,76.447929 388.920654,71.643883 
z"/>
<path fill="#F6F6F6" opacity="1.000000" stroke="none" 
	d="
M320.806213,123.077972 
	C317.301697,116.547417 317.787659,111.340523 322.019684,107.296860 
	C326.736420,102.790077 334.900970,101.980164 340.562744,105.457390 
	C345.530884,108.508621 347.569000,113.599533 346.060760,119.190758 
	C343.870605,127.310234 332.621704,130.993790 324.494415,126.188812 
	C323.229523,125.440964 322.184692,124.320770 320.806213,123.077972 
M327.415436,117.904678 
	C330.219269,121.413490 333.613617,122.249062 336.093048,119.875557 
	C338.463562,117.606331 338.866699,114.686913 336.601379,112.414253 
	C335.350281,111.159119 332.743744,110.395882 330.973511,110.704208 
	C327.734985,111.268250 326.683289,113.950897 327.415436,117.904678 
z"/>
<path fill="#F8F8F8" opacity="1.000000" stroke="none" 
	d="
M404.212524,61.934593 
	C415.137939,56.826767 424.236755,62.172581 423.592529,73.390976 
	C418.213654,73.390976 412.796906,73.390976 407.285095,73.390976 
	C408.380219,77.772781 411.562561,79.786758 414.850220,77.524658 
	C418.477386,75.028931 420.483398,77.058983 423.305359,78.629059 
	C420.032898,83.893600 415.152069,85.166405 409.829315,84.606842 
	C404.465088,84.042900 400.509186,81.029358 398.961365,75.683044 
	C397.341644,70.088356 399.294159,65.577911 404.212524,61.934593 
M414.423340,66.001198 
	C411.120697,64.247910 408.651703,64.761940 406.940674,68.990479 
	C409.625854,68.990479 411.869843,69.104767 414.079529,68.880844 
	C414.459045,68.842384 414.692596,67.363434 414.423340,66.001198 
z"/>
<path fill="#FBFBFB" opacity="1.000000" stroke="none" 
	d="
M373.038879,123.687683 
	C372.938568,124.531258 372.929413,124.905457 372.934021,125.560120 
	C370.544617,126.588036 368.141479,127.335503 365.035828,128.301468 
	C365.035828,123.204918 365.021881,119.418427 365.040405,115.632095 
	C365.054321,112.788658 364.695862,110.005020 361.103088,109.912483 
	C357.271820,109.813805 356.022980,112.356346 356.061951,115.831024 
	C356.102844,119.477402 356.071106,123.124603 356.071106,127.139923 
	C353.509674,127.139923 351.125183,127.139923 348.361633,127.139923 
	C348.361633,119.640923 348.361633,111.975098 348.361633,103.313744 
	C351.216858,104.122391 353.749878,104.987335 356.353027,105.486336 
	C357.125092,105.634331 358.085205,104.730965 358.974976,104.345909 
	C366.327942,101.163994 372.997406,105.345314 373.135681,113.254562 
	C373.193756,116.574768 373.135437,119.896996 373.038879,123.687683 
z"/>
<path fill="#F4F4F4" opacity="1.000000" stroke="none" 
	d="
M323.480530,66.596916 
	C320.831451,66.365395 318.548920,66.007271 316.266357,65.649147 
	C316.116791,66.209244 315.967224,66.769348 315.817657,67.329453 
	C317.620819,68.141304 319.398682,69.016136 321.232452,69.751617 
	C324.821228,71.190994 327.200104,73.550476 326.728119,77.649612 
	C326.266205,81.661339 323.650299,84.106384 319.747284,84.201515 
	C315.485199,84.305389 311.203583,83.608154 305.793884,83.167542 
	C307.584351,79.914299 308.498291,78.253685 309.303894,76.789940 
	C312.282166,77.381050 315.003967,77.921257 317.725769,78.461464 
	C317.919037,77.802887 318.112274,77.144302 318.305542,76.485718 
	C316.504944,75.605324 314.667816,74.791634 312.912048,73.829514 
	C309.995819,72.231499 307.605286,70.160179 308.193787,66.396729 
	C308.795807,62.546989 311.617065,60.541779 315.085846,60.213470 
	C318.614746,59.879471 322.234924,60.509792 326.743073,60.771778 
	C325.446320,63.323437 324.646698,64.896881 323.480530,66.596916 
z"/>
<path fill="#F4F4F4" opacity="1.000000" stroke="none" 
	d="
M427.377930,44.711086 
	C429.453217,44.702332 431.109161,44.702332 433.120728,44.702332 
	C433.120728,57.758232 433.120728,70.624176 433.120728,83.756454 
	C430.729553,83.756454 428.305389,83.756454 425.224579,83.756454 
	C425.224579,75.745636 425.224518,67.663300 425.224609,59.580967 
	C425.224670,55.589336 425.113159,51.592335 425.304474,47.609882 
	C425.351898,46.622330 426.380859,45.681923 427.377930,44.711086 
z"/>
<path fill="#F3F3F3" opacity="1.000000" stroke="none" 
	d="
M305.008972,57.026756 
	C305.008972,66.158882 305.008972,74.794632 305.008972,83.725174 
	C302.082306,83.725174 299.377350,83.725174 296.444519,83.725174 
	C296.444519,71.322395 296.444519,59.072891 296.444519,46.477112 
	C299.124725,46.477112 301.704895,46.477112 305.008972,46.477112 
	C305.008972,49.684349 305.008972,53.107365 305.008972,57.026756 
z"/>
<path fill="#F2F2F2" opacity="1.000000" stroke="none" 
	d="
M420.668854,111.226311 
	C420.357666,111.259499 419.704926,111.488365 419.004822,111.426300 
	C419.414032,111.230904 419.870697,111.326447 420.668854,111.226311 
z"/>
<path fill="#F2F2F2" opacity="1.000000" stroke="none" 
	d="
M393.717316,115.964569 
	C394.031982,116.438499 394.107941,116.984375 394.183929,117.530251 
	C393.804840,117.219299 393.425751,116.908356 393.013641,116.328941 
	C392.980621,116.060471 393.478638,116.036530 393.717316,115.964569 
z"/>
<path fill="#F2F2F2" opacity="1.000000" stroke="none" 
	d="
M405.432770,113.000557 
	C400.735901,110.800240 404.047546,109.140244 405.721466,108.420418 
	C408.755676,107.115631 410.956543,108.526558 412.391693,112.505058 
	C409.823029,112.705406 407.834106,112.860535 405.432770,113.000557 
z"/>
<path fill="#080808" opacity="1.000000" stroke="none" 
	d="
M459.264404,115.199844 
	C459.194183,119.207291 457.358734,121.660294 453.772552,120.928902 
	C451.872467,120.541382 449.069916,118.138229 449.042786,116.603142 
	C449.007172,114.588715 450.864075,111.529617 452.701385,110.718033 
	C455.867157,109.319633 458.398926,111.227669 459.264404,115.199844 
z"/>
<path fill="#0C0C0C" opacity="1.000000" stroke="none" 
	d="
M388.935211,72.037537 
	C388.386078,76.447929 386.063843,78.406090 382.094330,77.539497 
	C378.840820,76.829216 377.230011,74.152985 378.318573,71.163689 
	C378.958984,69.405045 381.203705,67.526840 383.062286,67.071518 
	C386.289520,66.280899 388.236481,68.467316 388.935211,72.037537 
z"/>
<path fill="#0C0C0C" opacity="1.000000" stroke="none" 
	d="
M327.285767,117.526505 
	C326.683289,113.950897 327.734985,111.268250 330.973511,110.704208 
	C332.743744,110.395882 335.350281,111.159119 336.601379,112.414253 
	C338.866699,114.686913 338.463562,117.606331 336.093048,119.875557 
	C333.613617,122.249062 330.219269,121.413490 327.285767,117.526505 
z"/>
<path fill="#242424" opacity="1.000000" stroke="none" 
	d="
M414.708435,66.275551 
	C414.692596,67.363434 414.459045,68.842384 414.079529,68.880844 
	C411.869843,69.104767 409.625854,68.990479 406.940674,68.990479 
	C408.651703,64.761940 411.120697,64.247910 414.708435,66.275551 
z"/>
</svg>