<?xml version="1.0" encoding="UTF-8"?>
<!DOCTYPE svg PUBLIC "-//W3C//DTD SVG 1.1//EN" "http://www.w3.org/Graphics/SVG/1.1/DTD/svg11.dtd">
<svg xmlns="http://www.w3.org/2000/svg" version="1.1" width="500px" height="500px" style="shape-rendering:geometricPrecision; text-rendering:geometricPrecision; image-rendering:optimizeQuality; fill-rule:evenodd; clip-rule:evenodd" xmlns:xlink="http://www.w3.org/1999/xlink">
<g><path style="opacity:0.534" fill="#a8a8a8" d="M 362.5,281.5 C 362.5,243.5 362.5,205.5 362.5,167.5C 287.167,167.5 211.833,167.5 136.5,167.5C 136.5,205.5 136.5,243.5 136.5,281.5C 199.5,281.5 262.5,281.5 325.5,281.5C 262.336,282.499 199.002,282.832 135.5,282.5C 135.5,243.833 135.5,205.167 135.5,166.5C 211.5,166.5 287.5,166.5 363.5,166.5C 363.832,205.004 363.499,243.337 362.5,281.5 Z M 246.5,170.5 C 246.5,206.5 246.5,242.5 246.5,278.5C 210.833,278.5 175.167,278.5 139.5,278.5C 139.5,242.5 139.5,206.5 139.5,170.5C 175.167,170.5 210.833,170.5 246.5,170.5 Z M 275.5,183.5 C 297.5,183.5 319.5,183.5 341.5,183.5C 341.5,189.5 341.5,195.5 341.5,201.5C 327.99,201.171 314.656,201.504 301.5,202.5C 301.5,207.5 301.5,212.5 301.5,217.5C 313.167,217.5 324.833,217.5 336.5,217.5C 336.5,223.5 336.5,229.5 336.5,235.5C 324.833,235.5 313.167,235.5 301.5,235.5C 301.5,245.5 301.5,255.5 301.5,265.5C 292.833,265.5 284.167,265.5 275.5,265.5C 275.5,238.167 275.5,210.833 275.5,183.5 Z"/></g>
<g><path style="opacity:1" fill="#030303" d="M 362.5,281.5 C 350.355,281.697 338.022,281.697 325.5,281.5C 262.5,281.5 199.5,281.5 136.5,281.5C 136.5,243.5 136.5,205.5 136.5,167.5C 211.833,167.5 287.167,167.5 362.5,167.5C 362.5,205.5 362.5,243.5 362.5,281.5 Z M 246.5,170.5 C 246.5,206.5 246.5,242.5 246.5,278.5C 210.833,278.5 175.167,278.5 139.5,278.5C 139.5,242.5 139.5,206.5 139.5,170.5C 175.167,170.5 210.833,170.5 246.5,170.5 Z M 275.5,183.5 C 297.5,183.5 319.5,183.5 341.5,183.5C 341.5,189.5 341.5,195.5 341.5,201.5C 327.99,201.171 314.656,201.504 301.5,202.5C 301.5,207.5 301.5,212.5 301.5,217.5C 313.167,217.5 324.833,217.5 336.5,217.5C 336.5,223.5 336.5,229.5 336.5,235.5C 324.833,235.5 313.167,235.5 301.5,235.5C 301.5,245.5 301.5,255.5 301.5,265.5C 292.833,265.5 284.167,265.5 275.5,265.5C 275.5,238.167 275.5,210.833 275.5,183.5 Z"/></g>
<g><path style="opacity:0.184" fill="#a5a5a5" d="M 246.5,170.5 C 210.833,170.5 175.167,170.5 139.5,170.5C 139.5,206.5 139.5,242.5 139.5,278.5C 175.167,278.5 210.833,278.5 246.5,278.5C 210.671,279.498 174.671,279.832 138.5,279.5C 138.5,242.833 138.5,206.167 138.5,169.5C 174.671,169.168 210.671,169.502 246.5,170.5 Z"/></g>
<g><path style="opacity:1" fill="#101010" d="M 178.5,181.5 C 187.833,181.5 197.167,181.5 206.5,181.5C 206.5,209.167 206.5,236.833 206.5,264.5C 197.167,264.5 187.833,264.5 178.5,264.5C 178.5,236.833 178.5,209.167 178.5,181.5 Z"/></g>
<g><path style="opacity:0.064" fill="#e5e5e5" d="M 275.5,183.5 C 297.66,182.503 319.994,182.169 342.5,182.5C 342.5,189.167 342.5,195.833 342.5,202.5C 328.833,202.5 315.167,202.5 301.5,202.5C 314.656,201.504 327.99,201.171 341.5,201.5C 341.5,195.5 341.5,189.5 341.5,183.5C 319.5,183.5 297.5,183.5 275.5,183.5 Z"/></g>
<g><path style="opacity:0.706" fill="#474747" d="M 336.5,235.5 C 325.346,236.495 314.012,236.828 302.5,236.5C 302.827,246.348 302.494,256.014 301.5,265.5C 301.5,255.5 301.5,245.5 301.5,235.5C 313.167,235.5 324.833,235.5 336.5,235.5 Z"/></g>
<g><path style="opacity:0.61" fill="#8e8e8e" d="M 125.5,313.5 C 125.5,307.167 125.5,300.833 125.5,294.5C 124.5,294.5 123.5,294.5 122.5,294.5C 122.5,300.833 122.5,307.167 122.5,313.5C 121.509,307.021 121.176,300.354 121.5,293.5C 123.167,293.5 124.833,293.5 126.5,293.5C 126.824,300.354 126.491,307.021 125.5,313.5 Z"/></g>
<g><path style="opacity:1" fill="#000000" d="M 125.5,313.5 C 124.5,313.5 123.5,313.5 122.5,313.5C 122.5,307.167 122.5,300.833 122.5,294.5C 123.5,294.5 124.5,294.5 125.5,294.5C 125.5,300.833 125.5,307.167 125.5,313.5 Z"/></g>
<g><path style="opacity:0.999" fill="#3c3c3c" d="M 132.5,293.5 C 136.24,293.241 139.906,293.574 143.5,294.5C 144.823,296.204 144.49,297.537 142.5,298.5C 139.353,297.025 136.353,297.192 133.5,299C 136.103,301.078 139.103,302.411 142.5,303C 147.232,309.848 145.232,313.682 136.5,314.5C 133.332,314.391 130.665,313.225 128.5,311C 128.998,309.842 129.831,309.009 131,308.5C 133.437,309.654 135.937,310.154 138.5,310C 139.973,309.29 140.64,308.124 140.5,306.5C 136.535,306.304 133.035,304.97 130,302.5C 128.927,298.9 129.76,295.9 132.5,293.5 Z"/></g>
<g><path style="opacity:1" fill="#232323" d="M 158.5,304.5 C 159.167,307.167 159.833,307.167 160.5,304.5C 162.137,300.882 164.137,297.549 166.5,294.5C 167.5,294.5 168.5,294.5 169.5,294.5C 169.5,300.833 169.5,307.167 169.5,313.5C 168.5,313.5 167.5,313.5 166.5,313.5C 166.665,309.818 166.499,306.152 166,302.5C 162.223,313.853 158.056,314.186 153.5,303.5C 153.539,302.244 153.039,301.244 152,300.5C 151.501,304.821 151.334,309.154 151.5,313.5C 150.5,313.5 149.5,313.5 148.5,313.5C 148.5,306.833 148.5,300.167 148.5,293.5C 150.144,293.286 151.644,293.62 153,294.5C 155.062,297.723 156.896,301.057 158.5,304.5 Z"/></g>
<g><path style="opacity:0.652" fill="#5b5b5b" d="M 166.5,294.5 C 167.568,293.566 168.901,293.232 170.5,293.5C 170.824,300.354 170.491,307.021 169.5,313.5C 169.5,307.167 169.5,300.833 169.5,294.5C 168.5,294.5 167.5,294.5 166.5,294.5 Z"/></g>
<g><path style="opacity:0.999" fill="#333333" d="M 180.5,293.5 C 182.467,293.261 184.301,293.594 186,294.5C 188.705,300.742 191.538,306.908 194.5,313C 190.78,314.392 188.78,313.225 188.5,309.5C 185.102,309.18 181.768,309.513 178.5,310.5C 177.213,313.281 175.213,313.948 172.5,312.5C 175.455,306.26 178.122,299.927 180.5,293.5 Z M 185.5,303.5 C 185.209,304.649 184.376,305.316 183,305.5C 181.93,305.472 181.097,305.139 180.5,304.5C 181.41,302.981 182.243,301.315 183,299.5C 184.095,300.693 184.928,302.027 185.5,303.5 Z"/></g>
<g><path style="opacity:1" fill="#111111" d="M 209.5,302.5 C 210.774,303.189 210.774,304.023 209.5,305C 206.518,305.498 203.518,305.665 200.5,305.5C 199.549,306.919 199.216,308.585 199.5,310.5C 203.5,310.5 207.5,310.5 211.5,310.5C 211.5,311.5 211.5,312.5 211.5,313.5C 206.5,313.5 201.5,313.5 196.5,313.5C 196.5,307.167 196.5,300.833 196.5,294.5C 201.214,294.173 205.88,294.507 210.5,295.5C 206.893,296.489 203.226,296.823 199.5,296.5C 199.5,298.5 199.5,300.5 199.5,302.5C 202.833,302.5 206.167,302.5 209.5,302.5 Z"/></g>
<g><path style="opacity:1" fill="#020202" d="M 229.5,310.5 C 229.5,311.5 229.5,312.5 229.5,313.5C 224.833,313.5 220.167,313.5 215.5,313.5C 215.5,307.167 215.5,300.833 215.5,294.5C 216.5,294.5 217.5,294.5 218.5,294.5C 218.5,299.833 218.5,305.167 218.5,310.5C 222.167,310.5 225.833,310.5 229.5,310.5 Z"/></g>
<g><path style="opacity:0.545" fill="#a2a2a2" d="M 229.5,310.5 C 225.833,310.5 222.167,310.5 218.5,310.5C 218.5,305.167 218.5,299.833 218.5,294.5C 217.5,294.5 216.5,294.5 215.5,294.5C 215.5,300.833 215.5,307.167 215.5,313.5C 214.509,307.021 214.176,300.354 214.5,293.5C 216.167,293.5 217.833,293.5 219.5,293.5C 219.5,298.833 219.5,304.167 219.5,309.5C 223.042,309.187 226.375,309.521 229.5,310.5 Z"/></g>
<g><path style="opacity:0.61" fill="#5f5f5f" d="M 254.5,296.5 C 254.167,296.5 253.833,296.5 253.5,296.5C 249.627,294.57 245.294,293.903 240.5,294.5C 240.5,300.833 240.5,307.167 240.5,313.5C 239.509,307.021 239.176,300.354 239.5,293.5C 244.5,293.5 249.5,293.5 254.5,293.5C 254.5,294.5 254.5,295.5 254.5,296.5 Z"/></g>
<g><path style="opacity:1" fill="#000000" d="M 253.5,296.5 C 250.167,296.5 246.833,296.5 243.5,296.5C 243.5,298.833 243.5,301.167 243.5,303.5C 255.5,304.167 255.5,304.833 243.5,305.5C 243.5,308.167 243.5,310.833 243.5,313.5C 242.5,313.5 241.5,313.5 240.5,313.5C 240.5,307.167 240.5,300.833 240.5,294.5C 245.294,293.903 249.627,294.57 253.5,296.5 Z"/></g>
<g><path style="opacity:1" fill="#353535" d="M 262.5,293.5 C 271.262,291.626 276.595,294.959 278.5,303.5C 277.767,310.4 273.934,314.066 267,314.5C 257.627,313.107 254.294,307.773 257,298.5C 258.73,296.598 260.563,294.931 262.5,293.5 Z M 264.5,297.5 C 271.329,296.828 274.163,299.828 273,306.5C 267.492,311.839 263.325,310.839 260.5,303.5C 260.866,300.744 262.2,298.744 264.5,297.5 Z"/></g>
<g><path style="opacity:0.999" fill="#1e1e1e" d="M 295.5,294.5 C 296.5,294.5 297.5,294.5 298.5,294.5C 298.5,300.833 298.5,307.167 298.5,313.5C 297.022,313.762 295.689,313.429 294.5,312.5C 291.667,308.833 288.833,305.167 286,301.5C 285.501,305.486 285.334,309.486 285.5,313.5C 284.167,313.5 282.833,313.5 281.5,313.5C 281.5,306.833 281.5,300.167 281.5,293.5C 282.873,293.343 284.207,293.51 285.5,294C 288.667,297.833 291.833,301.667 295,305.5C 295.499,301.848 295.665,298.182 295.5,294.5 Z"/></g>
<g><path style="opacity:0.625" fill="#5f5f5f" d="M 295.5,294.5 C 296.568,293.566 297.901,293.232 299.5,293.5C 299.824,300.354 299.491,307.021 298.5,313.5C 298.5,307.167 298.5,300.833 298.5,294.5C 297.5,294.5 296.5,294.5 295.5,294.5 Z"/></g>
<g><path style="opacity:1" fill="#3b3b3b" d="M 306.5,304.5 C 306.027,303.094 305.027,302.427 303.5,302.5C 301.815,298.747 302.815,295.914 306.5,294C 309.833,293.333 313.167,293.333 316.5,294C 317.38,295.356 317.714,296.856 317.5,298.5C 315.512,298.173 313.512,297.84 311.5,297.5C 309.681,297.342 308.348,298.009 307.5,299.5C 311.073,300.941 314.573,302.608 318,304.5C 319.901,311.102 317.401,314.435 310.5,314.5C 307.3,314.384 304.633,313.217 302.5,311C 302.613,309.72 303.28,308.887 304.5,308.5C 307.946,310.884 311.28,310.884 314.5,308.5C 312.176,306.606 309.509,305.273 306.5,304.5 Z"/></g>
<g><path style="opacity:0.606" fill="#5f5f5f" d="M 336.5,296.5 C 336.167,296.5 335.833,296.5 335.5,296.5C 331.627,294.57 327.294,293.903 322.5,294.5C 322.5,300.833 322.5,307.167 322.5,313.5C 321.509,307.021 321.176,300.354 321.5,293.5C 326.5,293.5 331.5,293.5 336.5,293.5C 336.5,294.5 336.5,295.5 336.5,296.5 Z"/></g>
<g><path style="opacity:1" fill="#070707" d="M 335.5,296.5 C 332.167,296.5 328.833,296.5 325.5,296.5C 325.5,298.5 325.5,300.5 325.5,302.5C 328.572,302.183 331.572,302.516 334.5,303.5C 331.358,304.167 328.358,304.834 325.5,305.5C 325.5,307.167 325.5,308.833 325.5,310.5C 329.167,310.5 332.833,310.5 336.5,310.5C 337.404,311.209 337.737,312.209 337.5,313.5C 332.5,313.5 327.5,313.5 322.5,313.5C 322.5,307.167 322.5,300.833 322.5,294.5C 327.294,293.903 331.627,294.57 335.5,296.5 Z"/></g>
<g><path style="opacity:0.999" fill="#363636" d="M 356.5,308.5 C 356.5,309.833 356.5,311.167 356.5,312.5C 343.594,316.625 338.094,311.959 340,298.5C 344.14,293.789 349.306,292.289 355.5,294C 358.474,295.506 358.807,297.172 356.5,299C 353.758,297.717 350.758,297.384 347.5,298C 343.47,300.287 342.636,303.454 345,307.5C 348.333,311.5 351.667,311.5 355,307.5C 355.383,308.056 355.883,308.389 356.5,308.5 Z"/></g>
<g><path style="opacity:0.999" fill="#2b2b2b" d="M 374.5,310.5 C 373.129,309.213 371.295,308.547 369,308.5C 366.705,308.547 364.871,309.213 363.5,310.5C 363.586,311.496 363.252,312.329 362.5,313C 360.934,313.765 359.601,313.598 358.5,312.5C 359.338,312.158 359.672,311.492 359.5,310.5C 361.439,305.025 363.772,299.692 366.5,294.5C 368.353,293.24 370.186,293.24 372,294.5C 374.644,300.768 377.477,306.935 380.5,313C 378.833,313.667 377.167,313.667 375.5,313C 374.748,312.329 374.414,311.496 374.5,310.5 Z M 371.5,304.5 C 369.833,305.833 368.167,305.833 366.5,304.5C 367.594,302.641 368.427,300.641 369,298.5C 369.573,300.641 370.406,302.641 371.5,304.5 Z"/></g>
<g><path style="opacity:0.629" fill="#666666" d="M 153.5,303.5 C 152.833,306.833 152.167,310.167 151.5,313.5C 151.334,309.154 151.501,304.821 152,300.5C 153.039,301.244 153.539,302.244 153.5,303.5 Z"/></g>
<g><path style="opacity:0.494" fill="#919191" d="M 209.5,302.5 C 206.167,302.5 202.833,302.5 199.5,302.5C 199.5,300.5 199.5,298.5 199.5,296.5C 203.226,296.823 206.893,296.489 210.5,295.5C 205.88,294.507 201.214,294.173 196.5,294.5C 196.5,300.833 196.5,307.167 196.5,313.5C 195.509,307.021 195.176,300.354 195.5,293.5C 200.833,293.5 206.167,293.5 211.5,293.5C 211.5,294.833 211.5,296.167 211.5,297.5C 207.833,297.5 204.167,297.5 200.5,297.5C 200.5,298.833 200.5,300.167 200.5,301.5C 203.713,301.19 206.713,301.523 209.5,302.5 Z"/></g>
<g><path style="opacity:0.376" fill="#a4a4a4" d="M 303.5,302.5 C 305.027,302.427 306.027,303.094 306.5,304.5C 304.973,304.573 303.973,303.906 303.5,302.5 Z"/></g>
<g><path style="opacity:0.512" fill="#8c8c8c" d="M 335.5,296.5 C 335.833,296.5 336.167,296.5 336.5,296.5C 333.375,297.479 330.042,297.813 326.5,297.5C 326.5,298.833 326.5,300.167 326.5,301.5C 329.5,301.5 332.5,301.5 335.5,301.5C 335.5,302.833 335.5,304.167 335.5,305.5C 332.5,305.5 329.5,305.5 326.5,305.5C 326.167,305.5 325.833,305.5 325.5,305.5C 328.358,304.834 331.358,304.167 334.5,303.5C 331.572,302.516 328.572,302.183 325.5,302.5C 325.5,300.5 325.5,298.5 325.5,296.5C 328.833,296.5 332.167,296.5 335.5,296.5 Z"/></g>
<g><path style="opacity:0.522" fill="#a4a4a4" d="M 158.5,304.5 C 159.167,304.5 159.833,304.5 160.5,304.5C 159.833,307.167 159.167,307.167 158.5,304.5 Z"/></g>
<g><path style="opacity:0.411" fill="#989898" d="M 185.5,303.5 C 186.404,304.209 186.737,305.209 186.5,306.5C 184.076,306.808 181.743,306.474 179.5,305.5C 179.624,304.893 179.957,304.56 180.5,304.5C 181.097,305.139 181.93,305.472 183,305.5C 184.376,305.316 185.209,304.649 185.5,303.5 Z"/></g>
<g><path style="opacity:0.469" fill="#9a9a9a" d="M 253.5,296.5 C 253.833,296.5 254.167,296.5 254.5,296.5C 251.375,297.479 248.042,297.813 244.5,297.5C 244.5,299.167 244.5,300.833 244.5,302.5C 247.5,302.5 250.5,302.5 253.5,302.5C 253.5,303.833 253.5,305.167 253.5,306.5C 250.5,306.5 247.5,306.5 244.5,306.5C 244.802,309.059 244.468,311.393 243.5,313.5C 243.5,310.833 243.5,308.167 243.5,305.5C 255.5,304.833 255.5,304.167 243.5,303.5C 243.5,301.167 243.5,298.833 243.5,296.5C 246.833,296.5 250.167,296.5 253.5,296.5 Z"/></g>
<g><path style="opacity:0.409" fill="#9a9a9a" d="M 366.5,304.5 C 368.167,305.833 369.833,305.833 371.5,304.5C 372.043,304.56 372.376,304.893 372.5,305.5C 370.167,306.833 367.833,306.833 365.5,305.5C 365.624,304.893 365.957,304.56 366.5,304.5 Z"/></g>
<g><path style="opacity:0.442" fill="#8c8c8c" d="M 374.5,310.5 C 370.833,309.167 367.167,309.167 363.5,310.5C 364.871,309.213 366.705,308.547 369,308.5C 371.295,308.547 373.129,309.213 374.5,310.5 Z"/></g>
<g><path style="opacity:0.047" fill="#d0d0d0" d="M 200.5,305.5 C 200.5,306.833 200.5,308.167 200.5,309.5C 204.371,309.185 208.038,309.518 211.5,310.5C 207.5,310.5 203.5,310.5 199.5,310.5C 199.216,308.585 199.549,306.919 200.5,305.5 Z"/></g>
<g><path style="opacity:0.042" fill="#efefef" d="M 325.5,305.5 C 325.833,305.5 326.167,305.5 326.5,305.5C 326.5,306.833 326.5,308.167 326.5,309.5C 330.042,309.187 333.375,309.521 336.5,310.5C 332.833,310.5 329.167,310.5 325.5,310.5C 325.5,308.833 325.5,307.167 325.5,305.5 Z"/></g>
<g><path style="opacity:0.012" fill="#bfbfbf" d="M 356.5,308.5 C 357.5,309.167 358.5,309.833 359.5,310.5C 359.672,311.492 359.338,312.158 358.5,312.5C 358.062,311.494 357.396,311.494 356.5,312.5C 356.5,311.167 356.5,309.833 356.5,308.5 Z"/></g>
</svg>
