<?xml version="1.0" standalone="no"?>
<!DOCTYPE svg PUBLIC "-//W3C//DTD SVG 20010904//EN"
 "http://www.w3.org/TR/2001/REC-SVG-20010904/DTD/svg10.dtd">
<svg version="1.0" xmlns="http://www.w3.org/2000/svg"
 width="500.000000pt" height="500.000000pt" viewBox="0 0 500.000000 500.000000"
 preserveAspectRatio="xMidYMid meet">

<g transform="translate(0.000000,500.000000) scale(0.100000,-0.100000)"
fill="#000000" stroke="none">
<path d="M1370 2750 l0 -570 1130 0 1130 0 0 570 0 570 -1130 0 -1130 0 0
-570z m1100 0 l0 -550 -540 0 -540 0 0 550 0 550 540 0 540 0 0 -550z m960
320 l0 -100 -200 0 -200 0 0 -70 0 -70 170 0 170 0 0 -95 0 -95 -170 0 -170 0
-1 -137 c-1 -76 -1 -144 0 -150 1 -10 -32 -13 -139 -13 l-140 0 0 415 0 415
340 0 340 0 0 -100z"/>
<path d="M1800 2765 l0 -415 130 0 130 0 0 415 0 415 -130 0 -130 0 0 -415z"/>
<path d="M1343 2050 c-12 -5 -27 -18 -33 -29 -17 -32 3 -57 60 -76 37 -12 50
-21 48 -33 -3 -13 -16 -17 -53 -18 -71 -2 -72 -3 -51 -19 45 -34 136 -8 136
39 0 29 -14 41 -66 58 -28 9 -39 19 -39 33 0 17 6 20 48 18 33 -1 47 3 47 12
0 22 -57 31 -97 15z"/>
<path d="M2640 2053 c-53 -21 -81 -83 -60 -134 31 -73 149 -78 186 -8 21 42
17 75 -13 109 -28 31 -81 46 -113 33z m78 -40 c51 -43 24 -123 -40 -123 -44 0
-68 25 -68 71 0 61 62 91 108 52z"/>
<path d="M3072 2050 c-27 -11 -36 -32 -28 -64 5 -19 17 -28 54 -38 37 -11 48
-19 50 -37 4 -23 2 -24 -52 -18 -42 4 -56 2 -56 -8 0 -30 101 -34 130 -5 37
37 18 72 -48 90 -74 19 -65 65 10 56 45 -5 60 10 23 24 -31 12 -52 12 -83 0z"/>
<path d="M3470 2053 c-105 -41 -78 -193 34 -193 28 0 76 19 76 31 0 12 -29 19
-35 9 -4 -6 -21 -10 -39 -10 -45 0 -68 28 -64 76 4 51 41 75 90 56 35 -13 58
-2 34 17 -17 14 -75 23 -96 14z"/>
<path d="M1230 1955 c0 -78 3 -95 15 -95 12 0 15 17 15 95 0 78 -3 95 -15 95
-12 0 -15 -17 -15 -95z"/>
<path d="M1490 1955 c0 -78 3 -95 15 -95 12 0 15 13 15 60 0 33 3 60 8 60 4 0
21 -24 39 -53 l31 -51 34 54 33 53 3 -61 c2 -46 7 -62 17 -62 12 0 15 19 15
95 0 115 -11 121 -61 35 -18 -33 -36 -60 -40 -60 -3 0 -21 27 -40 60 -21 37
-41 60 -51 60 -16 0 -18 -11 -18 -95z"/>
<path d="M1780 1964 c-22 -47 -40 -90 -40 -95 0 -19 27 -8 38 16 10 22 18 25
60 25 42 0 50 -3 60 -25 10 -22 49 -38 40 -17 -1 5 -21 48 -42 95 -52 115 -64
115 -116 1z m75 20 c21 -51 20 -54 -21 -54 -30 0 -35 3 -29 18 4 9 12 29 17
45 5 15 12 27 14 27 2 0 11 -16 19 -36z"/>
<path d="M1970 1955 l0 -95 70 0 c56 0 70 3 70 15 0 12 -13 15 -56 15 -54 0
-55 0 -52 28 3 25 7 27 51 30 26 2 47 7 47 12 0 5 -21 10 -47 12 -44 3 -48 5
-48 28 0 23 4 25 53 28 77 4 63 22 -18 22 l-70 0 0 -95z"/>
<path d="M2160 1955 l0 -95 70 0 c56 0 70 3 70 15 0 12 -13 15 -55 15 l-55 0
0 80 c0 64 -3 80 -15 80 -12 0 -15 -17 -15 -95z"/>
<path d="M2410 1955 c0 -78 3 -95 15 -95 11 0 15 11 15 40 l0 40 45 0 c25 0
45 5 45 10 0 6 -20 10 -45 10 -45 0 -45 0 -45 35 l0 35 55 0 c30 0 55 5 55 10
0 6 -30 10 -70 10 l-70 0 0 -95z"/>
<path d="M2820 1955 c0 -88 1 -95 20 -95 18 0 20 7 20 66 l0 67 53 -66 c28
-36 58 -66 65 -66 9 -1 12 24 12 94 0 76 -3 95 -15 95 -10 0 -15 -16 -17 -62
l-3 -63 -49 63 c-29 36 -57 62 -67 62 -17 0 -19 -9 -19 -95z"/>
<path d="M3230 1955 l0 -95 70 0 c56 0 70 3 70 15 0 12 -13 15 -55 15 -54 0
-55 0 -55 30 0 29 2 30 45 30 25 0 45 5 45 10 0 6 -20 10 -45 10 -43 0 -45 1
-45 30 0 30 1 30 55 30 30 0 55 5 55 10 0 6 -30 10 -70 10 l-70 0 0 -95z"/>
<path d="M3633 1955 c-36 -83 -39 -95 -23 -95 11 0 20 10 24 26 6 23 10 25 59
22 43 -2 54 -7 62 -25 5 -13 17 -23 27 -23 14 0 10 16 -25 95 -33 75 -46 95
-62 95 -16 0 -29 -20 -62 -95z m91 -2 c7 -21 4 -23 -28 -23 -41 0 -43 5 -19
55 17 35 17 36 29 13 6 -13 15 -33 18 -45z"/>
</g>
</svg>
