<?xml version="1.0"?>
<svg width="501.11" height="147.9" xmlns="http://www.w3.org/2000/svg" xmlns:svg="http://www.w3.org/2000/svg" enable-background="new 0 0 501.11 147.9" version="1.1" xml:space="preserve">
 <style type="text/css">.st0{display:none;}
	.st1{display:inline;}
	.st2{fill:#ffffff;}
	.st3{fill:#05bdde;}
	.st4{fill:#0c97c7;}</style>
 <g class="layer">
  <g id="svg_1">
   <g class="st0" id="svg_2">
    <path class="st1" d="m196.57,47.39l0,11.13l-52.66,0l0,-11.13l52.66,0zm-19.28,0l0,63.97l-14.19,0l0,-63.97l14.19,0z" id="svg_3"/>
    <path class="st1" d="m214.83,45.35c2.72,0 4.08,1.39 4.08,4.17l0,4.91c0,2.78 -1.36,4.17 -4.08,4.17l-5.93,0c-2.72,0 -4.08,-1.39 -4.08,-4.17l0,-4.91c0,-2.78 1.36,-4.17 4.08,-4.17l5.93,0zm3.8,20.21l0,45.8l-13.63,0l0,-45.8l13.63,0z" id="svg_4"/>
    <path class="st1" d="m242.18,65.56l1.58,9.09l1.11,1.21l0,35.51l-13.72,0l0,-45.8l11.03,0l0,-0.01zm20.86,-1.2c8.65,0 12.98,4.23 12.98,12.7l0,34.3l-13.72,0l0,-30.03c0,-2.04 -0.37,-3.44 -1.11,-4.22c-0.74,-0.77 -2.01,-1.16 -3.8,-1.16c-1.98,0 -4.02,0.39 -6.12,1.16c-2.1,0.77 -4.7,1.96 -7.79,3.57l-0.65,-7.7c3.28,-2.78 6.63,-4.91 10.06,-6.4c3.43,-1.48 6.82,-2.22 10.15,-2.22z" id="svg_5"/>
    <path class="st1" d="m313.66,46.28c3.03,0 5.61,0.08 7.74,0.23c2.13,0.16 4.09,0.39 5.89,0.7c1.79,0.31 3.65,0.74 5.56,1.3l-1.11,10.38c-2.04,-0.12 -3.91,-0.22 -5.61,-0.28c-1.7,-0.06 -3.52,-0.11 -5.47,-0.14c-1.95,-0.03 -4.28,-0.05 -7,-0.05c-3.15,0 -5.61,0.62 -7.37,1.85c-1.76,1.24 -3.01,3.38 -3.75,6.44c-0.74,3.06 -1.11,7.28 -1.11,12.66s0.37,9.6 1.11,12.66c0.74,3.06 1.99,5.21 3.75,6.44c1.76,1.24 4.22,1.85 7.37,1.85c4.27,0 7.85,-0.06 10.75,-0.19c2.91,-0.12 5.78,-0.34 8.62,-0.65l1.21,10.38c-2.97,0.93 -6,1.59 -9.09,1.99c-3.09,0.4 -6.92,0.6 -11.5,0.6c-6.61,0 -11.91,-1.07 -15.9,-3.2c-3.99,-2.13 -6.86,-5.61 -8.62,-10.43c-1.76,-4.82 -2.64,-11.31 -2.64,-19.47s0.88,-14.65 2.64,-19.47c1.76,-4.82 4.64,-8.3 8.62,-10.43c4,-2.1 9.3,-3.17 15.91,-3.17z" id="svg_6"/>
    <path class="st1" d="m365.03,64.36c5.75,0 10.35,0.79 13.81,2.36c3.46,1.58 5.95,4.13 7.46,7.65c1.51,3.52 2.27,8.25 2.27,14.19c0,5.81 -0.76,10.48 -2.27,14c-1.52,3.52 -4,6.06 -7.46,7.6c-3.46,1.54 -8.07,2.32 -13.81,2.32c-5.69,0 -10.28,-0.77 -13.77,-2.32c-3.49,-1.54 -6.01,-4.08 -7.56,-7.6c-1.55,-3.52 -2.32,-8.19 -2.32,-14c0,-5.93 0.77,-10.66 2.32,-14.19c1.54,-3.52 4.06,-6.07 7.56,-7.65c3.49,-1.57 8.08,-2.36 13.77,-2.36zm0,10.01c-2.35,0 -4.2,0.4 -5.56,1.21c-1.36,0.8 -2.32,2.23 -2.87,4.26c-0.56,2.04 -0.83,4.95 -0.83,8.72c0,3.71 0.28,6.58 0.83,8.62c0.56,2.04 1.51,3.45 2.87,4.22c1.36,0.77 3.21,1.16 5.56,1.16c2.35,0 4.2,-0.39 5.56,-1.16c1.36,-0.77 2.32,-2.18 2.87,-4.22c0.56,-2.04 0.83,-4.91 0.83,-8.62c0,-3.77 -0.28,-6.68 -0.83,-8.72c-0.56,-2.04 -1.51,-3.46 -2.87,-4.26c-1.36,-0.81 -3.21,-1.21 -5.56,-1.21z" id="svg_7"/>
    <path class="st1" d="m414.54,64.36c3.21,0 6.32,0.46 9.32,1.39s5.64,2.44 7.93,4.54l-0.93,6.3c-2.1,-0.62 -3.99,-1.17 -5.66,-1.67c-1.67,-0.49 -3.62,-0.74 -5.84,-0.74c-1.92,0 -3.46,0.34 -4.64,1.02c-1.17,0.68 -2.04,2.01 -2.6,3.99c-0.56,1.98 -0.83,4.91 -0.83,8.81c0,3.65 0.26,6.41 0.79,8.3c0.52,1.89 1.36,3.18 2.5,3.89c1.14,0.71 2.61,1.07 4.4,1.07c1.61,0 3,-0.17 4.17,-0.51c1.17,-0.34 2.35,-0.86 3.52,-1.58c1.17,-0.71 2.5,-1.59 3.99,-2.64l1.02,6.77c-1.85,2.6 -4.26,4.77 -7.23,6.54c-2.97,1.76 -6.62,2.64 -10.94,2.64c-5.87,0 -10.06,-2.1 -12.56,-6.3c-2.5,-4.2 -3.75,-10.23 -3.75,-18.08c0,-6.12 0.63,-10.89 1.9,-14.32c1.27,-3.43 3.2,-5.86 5.79,-7.28c2.6,-1.43 5.81,-2.14 9.65,-2.14zm28.46,-17.89l0,64.9l-10.85,0l-1.39,-8.44l-1.48,-1.02l0,-30.04l0.56,-1.21c-0.19,-1.92 -0.32,-3.85 -0.42,-5.79c-0.09,-1.95 -0.14,-3.94 -0.14,-5.98l0,-12.42l13.72,0z" id="svg_8"/>
    <path class="st1" d="m476.84,64.36c7.73,0 13.27,1.31 16.64,3.94c3.37,2.63 5.05,6.54 5.05,11.73c0.06,4.2 -0.99,7.34 -3.15,9.41c-2.16,2.07 -5.9,3.11 -11.22,3.11l-25.59,0l0,-7.7l21.79,0c2.1,0 3.44,-0.45 4.03,-1.34c0.59,-0.9 0.88,-2.15 0.88,-3.75c-0.06,-2.16 -0.7,-3.66 -1.9,-4.5c-1.21,-0.83 -3.23,-1.25 -6.07,-1.25c-2.54,0 -4.51,0.34 -5.93,1.02c-1.42,0.68 -2.41,1.98 -2.97,3.89c-0.56,1.92 -0.83,4.7 -0.83,8.34c0,3.83 0.34,6.78 1.02,8.85c0.68,2.07 1.84,3.51 3.48,4.31c1.64,0.8 3.91,1.21 6.81,1.21c2.1,0 4.71,-0.08 7.83,-0.23c3.12,-0.15 6.26,-0.42 9.41,-0.79l1.3,8.44c-1.79,0.87 -3.83,1.55 -6.12,2.04c-2.29,0.49 -4.64,0.85 -7.05,1.07c-2.41,0.22 -4.73,0.32 -6.95,0.32c-5.81,0 -10.49,-0.85 -14.05,-2.55c-3.56,-1.7 -6.12,-4.31 -7.7,-7.83c-1.58,-3.52 -2.36,-8.03 -2.36,-13.54c0,-5.99 0.8,-10.75 2.41,-14.28c1.61,-3.52 4.14,-6.06 7.6,-7.6c3.47,-1.55 8.01,-2.32 13.64,-2.32z" id="svg_9"/>
   </g>
  </g>
  <g id="svg_19">
   <g id="svg_20">
    <g id="svg_21">
     <path class="st3" d="m59.64,92.18l-37.76,-37.9c-1.64,3.87 -3.49,11.72 -2.09,21.93l27.84,27.94c1.66,1.66 3.83,2.49 6.01,2.49c2.16,0 4.33,-0.82 5.98,-2.47c3.32,-3.3 3.33,-8.67 0.02,-11.99z" fill="#000000" id="svg_22"/>
    </g>
    <g id="svg_23">
     <path class="st4" d="m21.88,54.28l-0.1,-0.1l34.09,-36.84c3.18,-3.44 2.97,-8.8 -0.46,-11.98c-3.44,-3.18 -8.8,-2.97 -11.98,0.46l-39.63,42.82c-3.09,3.34 -2.99,8.52 0.22,11.74l15.77,15.83c-1.4,-10.21 0.46,-18.06 2.09,-21.93z" fill="#000000" id="svg_24"/>
    </g>
   </g>
  </g>
  <g id="svg_25">
   <path class="st3" d="m56.33,119.81l37.76,-37.9c1.64,3.87 3.49,11.72 2.09,21.93l-27.84,27.94c-1.66,1.66 -3.83,2.49 -6.01,2.49c-2.16,0 -4.33,-0.82 -5.98,-2.47c-3.31,-3.3 -3.32,-8.67 -0.02,-11.99z" fill="#000000" id="svg_26"/>
   <path class="st4" d="m94.1,81.91l0.1,-0.1l-34.09,-36.83c-3.18,-3.44 -2.97,-8.8 0.46,-11.98c3.44,-3.18 8.8,-2.97 11.98,0.46l39.62,42.81c3.09,3.34 2.99,8.52 -0.22,11.74l-15.77,15.83c1.4,-10.2 -0.45,-18.06 -2.08,-21.93z" fill="#000000" id="svg_27"/>
  </g>
  <rect fill="#ffffff" height="62" id="svg_38" width="14" x="157.89" y="44.95"/>
  <rect fill="#000000" height="62" id="svg_39" width="14" x="186.89" y="45.1"/>
  <rect fill="#000000" height="45" id="svg_40" transform="rotate(90 211.5 51.99)" width="14" x="204.5" y="29.49"/>
  <rect fill="#000000" height="30" id="svg_41" transform="rotate(90 204.39 74.1)" width="14" x="197.39" y="59.1"/>
 </g>
</svg>